<svg xmlns="http://www.w3.org/2000/svg" viewBox="0 0 375 215"><defs><style>.cls-1{fill:#47239e;}.cls-2{fill:#431b93;}.cls-3{fill:#401387;}.cls-4{fill:#360b76;}.cls-10,.cls-5,.cls-8,.cls-9{fill:#d88a3d;}.cls-6{fill:#2a0466;}.cls-7{fill:#eaac68;}.cls-8{opacity:0.75;}.cls-9{opacity:0.5;}.cls-10{opacity:0.25;}.cls-11{fill:#c97a32;}.cls-12{fill:#e5a35d;}.cls-13{fill:#fff;}.cls-14{fill:#593bb7;}.cls-15{fill:#664dce;}.cls-16{fill:#ffd112;}.cls-17{fill:#ffeea9;}.cls-18{fill:#ff9b25;}.cls-19{fill:#d05aed;}.cls-20{fill:#d28bea;}.cls-21{fill:#bf3be0;}.cls-22{fill:#c33cce;}.cls-23{fill:#2d0533;}.cls-24{fill:#a728a9;}</style></defs><title>bg02</title><g id="Layer_2" data-name="Layer 2"><g id="Layer_1-2" data-name="Layer 1"><rect class="cls-1" width="375" height="215"/><rect class="cls-2" width="375" height="145"/><rect class="cls-3" width="375" height="100"/><rect class="cls-4" width="375" height="55"/><rect class="cls-5" x="12.71" y="160.89" width="6.36" height="3.18"/><polygon class="cls-4" points="171.21 186.38 171.21 183.18 164.85 183.18 164.85 180 158.5 180 158.5 176.82 152.14 176.82 152.14 173.64 146.19 173.64 146.19 170.46 136.65 170.46 136.65 167.25 130.3 167.25 130.3 164.07 117.58 164.07 117.58 160.89 111.23 160.89 111.23 157.71 101.69 157.71 101.69 154.53 95.34 154.53 95.34 151.36 88.98 151.36 88.98 148.18 82.63 148.18 82.63 145 76.27 145 76.27 141.82 69.92 141.82 69.92 138.64 60.38 138.64 60.38 141.82 54.03 141.82 54.03 145 47.67 145 47.67 148.18 38.14 148.18 38.14 151.36 31.78 151.36 31.78 154.53 25.42 154.53 25.42 157.71 19.07 157.71 19.07 160.89 12.71 160.89 12.71 164.07 6.36 164.07 6.36 167.25 0 167.25 0 199.11 12.71 199.11 12.71 202.29 177.56 202.29 177.56 186.38 171.21 186.38"/><polygon class="cls-6" points="95.35 186.4 95.35 183.22 92.17 183.22 92.17 180.04 82.64 180.04 82.64 176.79 69.93 176.79 69.93 180.04 66.73 180.04 66.73 176.77 63.58 176.77 63.58 173.64 60.38 173.64 60.38 170.43 47.89 170.43 47.89 167.26 41.51 167.26 41.51 170.43 38.14 170.43 38.14 173.64 31.78 173.64 31.78 176.77 25.42 176.77 25.42 180.04 22.24 180.04 22.24 183.22 25.42 183.22 25.42 186.4 28.6 186.4 28.6 189.58 34.96 189.58 34.96 195.93 41.31 195.93 41.31 199.11 79.45 199.11 79.45 195.93 92.16 195.93 92.16 189.58 98.53 189.58 98.53 186.4 95.35 186.4"/><rect class="cls-3" x="127.12" y="167.25" width="9.53" height="3.21"/><rect class="cls-3" x="104.87" y="167.25" width="9.53" height="3.21"/><rect class="cls-3" x="95.34" y="164.05" width="9.53" height="3.21"/><rect class="cls-3" x="79.45" y="164.05" width="6.36" height="3.21"/><rect class="cls-6" x="95.36" y="179.97" width="6.36" height="3.21"/><rect class="cls-3" x="66.74" y="151.31" width="3.18" height="3.18"/><rect class="cls-3" x="44.65" y="160.87" width="3.18" height="3.18"/><rect class="cls-3" x="69.93" y="154.49" width="12.71" height="3.22"/><rect class="cls-3" x="47.89" y="164.05" width="12.72" height="3.22"/><rect class="cls-3" x="82.63" y="173.59" width="12.72" height="3.22"/><rect class="cls-3" x="117.59" y="173.61" width="12.72" height="3.22"/><rect class="cls-3" x="66.74" y="167.23" width="12.73" height="3.22"/><rect class="cls-3" x="82.64" y="151.31" width="12.71" height="3.18"/><rect class="cls-3" x="76.28" y="148.16" width="12.71" height="3.18"/><rect class="cls-3" x="69.93" y="145" width="12.71" height="3.18"/><rect class="cls-3" x="63.58" y="141.82" width="12.71" height="3.18"/><rect class="cls-3" x="57.23" y="138.64" width="12.71" height="3.18"/><rect class="cls-3" x="114.41" y="170.46" width="3.18" height="3.18"/><rect class="cls-3" x="92.16" y="160.89" width="3.18" height="3.18"/><rect class="cls-3" x="98.52" y="173.59" width="3.18" height="3.18"/><rect class="cls-3" x="82.63" y="157.71" width="3.18" height="3.18"/><rect class="cls-3" x="148.96" y="176.81" width="9.53" height="3.18"/><rect class="cls-3" x="155.32" y="179.99" width="9.53" height="3.18"/><rect class="cls-3" x="161.67" y="183.17" width="9.53" height="3.18"/><rect class="cls-3" x="168.03" y="186.35" width="9.53" height="3.18"/><rect class="cls-3" x="142.6" y="173.63" width="9.53" height="3.18"/><rect class="cls-3" x="133.47" y="170.46" width="12.71" height="3.18"/><rect class="cls-3" x="114.41" y="164.07" width="15.89" height="3.18"/><rect class="cls-3" x="104.89" y="160.89" width="12.71" height="3.18"/><rect class="cls-3" x="98.54" y="157.71" width="12.71" height="3.18"/><rect class="cls-3" x="88.99" y="154.49" width="12.71" height="3.22"/><polygon class="cls-4" points="203.59 186.38 203.59 183.18 209.95 183.18 209.95 180 216.3 180 216.3 176.82 222.66 176.82 222.66 173.64 228.61 173.64 228.61 170.42 238.15 170.42 238.15 167.25 244.5 167.25 244.5 164.07 257.21 164.07 257.21 160.89 263.57 160.89 263.57 157.71 273.1 157.71 273.1 154.53 279.46 154.53 279.46 151.36 285.82 151.36 285.82 148.18 292.17 148.18 292.17 145 298.53 145 298.53 141.82 304.88 141.82 304.88 138.64 314.42 138.64 314.42 141.82 320.77 141.82 320.77 145 327.13 145 327.13 148.18 336.66 148.18 336.66 151.36 343.02 151.36 343.02 154.53 349.38 154.53 349.38 157.71 355.73 157.71 355.73 160.89 362.09 160.89 362.09 164.07 368.44 164.07 368.44 167.25 375 167.25 375 199.11 362.09 199.11 362.09 202.29 197.24 202.29 197.24 186.38 203.59 186.38"/><polygon class="cls-6" points="343.05 186.4 343.05 183.22 339.87 183.22 339.87 180.04 330.34 180.04 330.34 176.79 317.64 176.79 317.64 180.04 314.44 180.04 314.44 176.77 311.28 176.77 311.28 173.64 308.09 173.64 308.09 170.43 295.59 170.43 295.59 167.26 289.21 167.26 289.21 170.43 285.84 170.43 285.84 173.64 279.49 173.64 279.49 176.77 273.12 176.77 273.12 180.04 269.94 180.04 269.94 183.22 273.12 183.22 273.12 186.4 276.31 186.4 276.31 189.58 282.66 189.58 282.66 195.93 289.02 195.93 289.02 199.11 336.83 199.11 336.83 195.93 339.87 195.93 339.87 189.58 346.24 189.58 346.24 186.4 343.05 186.4"/><polygon class="cls-6" points="232 186.4 232 183.22 235.18 183.22 235.18 180.04 244.71 180.04 244.71 176.79 257.42 176.79 257.42 180.04 260.61 180.04 260.61 176.77 263.77 176.77 263.77 173.64 295.57 173.64 295.57 176.77 301.93 176.77 301.93 180.04 305.11 180.04 305.11 183.22 301.93 183.22 301.93 186.4 298.75 186.4 298.75 189.58 292.39 189.58 292.39 195.93 286.03 195.93 286.03 199.11 238.22 199.11 238.22 195.93 219.56 195.93 219.56 189.58 228.81 189.58 228.81 186.4 232 186.4"/><rect class="cls-3" x="352.59" y="167.25" width="9.53" height="3.21"/><rect class="cls-3" x="343.06" y="164.05" width="9.53" height="3.21"/><rect class="cls-3" x="327.17" y="164.05" width="6.36" height="3.21"/><rect class="cls-6" x="343.08" y="179.97" width="6.36" height="3.21"/><rect class="cls-6" x="279.48" y="167.24" width="6.36" height="3.21"/><rect class="cls-3" x="314.46" y="151.31" width="3.18" height="3.18"/><rect class="cls-3" x="292.37" y="160.87" width="3.18" height="3.18"/><rect class="cls-3" x="272.92" y="164.07" width="6.56" height="3.18"/><rect class="cls-3" x="317.65" y="154.49" width="12.71" height="3.22"/><rect class="cls-3" x="295.61" y="164.05" width="12.72" height="3.22"/><rect class="cls-3" x="330.35" y="173.59" width="12.72" height="3.22"/><rect class="cls-3" x="365.31" y="173.61" width="9.69" height="3.22"/><rect class="cls-3" x="314.46" y="167.23" width="12.73" height="3.22"/><rect class="cls-3" x="330.36" y="151.31" width="12.71" height="3.18"/><rect class="cls-3" x="324.01" y="148.16" width="12.71" height="3.18"/><rect class="cls-3" x="317.65" y="145" width="12.71" height="3.18"/><rect class="cls-3" x="311.3" y="141.82" width="12.71" height="3.18"/><rect class="cls-3" x="304.95" y="138.64" width="12.71" height="3.18"/><rect class="cls-3" x="362.13" y="170.46" width="3.18" height="3.18"/><rect class="cls-3" x="339.88" y="160.89" width="3.18" height="3.18"/><rect class="cls-3" x="346.24" y="173.59" width="3.18" height="3.18"/><rect class="cls-3" x="330.35" y="157.71" width="3.18" height="3.18"/><rect class="cls-3" x="362.13" y="164.07" width="12.87" height="3.18"/><rect class="cls-3" x="352.62" y="160.89" width="12.71" height="3.18"/><rect class="cls-3" x="346.26" y="157.71" width="12.71" height="3.18"/><rect class="cls-3" x="336.71" y="154.49" width="12.71" height="3.22"/><polygon class="cls-7" points="333.69 195.93 333.69 199.11 320.98 199.11 308.26 199.11 308.26 195.93 257.42 195.93 257.42 199.11 241.53 199.11 241.53 195.93 73.09 195.93 73.09 199.11 63.56 199.11 54.02 199.11 54.02 195.93 0 195.93 0 215 375 215 375 195.93 333.69 195.93"/><rect class="cls-8" y="208.64" width="375" height="3.18" transform="translate(375 420.47) rotate(180)"/><rect class="cls-5" y="211.82" width="375" height="3.18" transform="translate(375 426.82) rotate(180)"/><rect class="cls-9" y="205.47" width="375" height="3.18" transform="translate(375 414.11) rotate(180)"/><rect class="cls-10" y="202.29" width="375" height="3.18" transform="translate(375 407.75) rotate(180)"/><rect class="cls-5" y="192.75" width="50.85" height="3.18"/><rect class="cls-5" x="9.53" y="189.58" width="34.96" height="3.18"/><rect class="cls-5" x="15.89" y="186.4" width="22.25" height="3.18"/><polygon class="cls-5" points="22.25 183.22 19.07 183.22 19.07 186.4 22.25 186.4 25.42 186.4 25.42 183.22 22.25 183.22"/><polygon class="cls-5" points="28.6 183.22 25.42 183.22 25.42 186.4 28.6 186.4 31.78 186.4 31.78 183.22 28.6 183.22"/><polygon class="cls-11" points="25.42 192.75 15.89 192.75 15.89 195.93 25.42 195.93 34.96 195.93 34.96 192.75 25.42 192.75"/><rect class="cls-12" x="28.6" y="186.4" width="9.53" height="3.18"/><rect class="cls-12" x="22.25" y="183.22" width="9.53" height="3.18"/><rect class="cls-12" x="34.96" y="189.58" width="9.53" height="3.18"/><rect class="cls-12" x="41.31" y="192.75" width="9.53" height="3.18"/><rect class="cls-7" x="28.6" y="183.22" width="3.18" height="3.18"/><rect class="cls-7" x="34.96" y="186.4" width="3.18" height="3.18"/><rect class="cls-7" x="41.31" y="189.58" width="3.18" height="3.18"/><rect class="cls-7" x="47.67" y="192.75" width="3.18" height="3.18"/><rect class="cls-11" x="25.42" y="189.58" width="3.18" height="3.18"/><rect class="cls-5" x="171.61" y="192.75" width="44.49" height="3.18"/><rect class="cls-5" x="174.79" y="189.58" width="34.96" height="3.18"/><rect class="cls-5" x="181.14" y="186.4" width="22.25" height="3.18"/><polygon class="cls-5" points="187.5 183.22 184.32 183.22 184.32 186.4 187.5 186.4 190.68 186.4 190.68 183.22 187.5 183.22"/><polygon class="cls-5" points="193.86 183.22 190.68 183.22 190.68 186.4 193.86 186.4 197.03 186.4 197.03 183.22 193.86 183.22"/><polygon class="cls-11" points="187.5 192.75 174.79 192.75 174.79 195.93 187.5 195.93 200.21 195.93 200.21 192.75 187.5 192.75"/><rect class="cls-12" x="193.86" y="186.4" width="9.53" height="3.18"/><rect class="cls-12" x="187.5" y="183.22" width="9.53" height="3.18"/><rect class="cls-12" x="200.21" y="189.58" width="9.53" height="3.18"/><rect class="cls-12" x="206.57" y="192.75" width="9.53" height="3.18"/><rect class="cls-7" x="193.86" y="183.22" width="3.18" height="3.18"/><rect class="cls-7" x="200.21" y="186.4" width="3.18" height="3.18"/><rect class="cls-7" x="206.57" y="189.58" width="3.18" height="3.18"/><rect class="cls-7" x="212.92" y="192.75" width="3.18" height="3.18"/><rect class="cls-11" x="190.68" y="189.58" width="3.18" height="3.18"/><rect class="cls-11" x="181.14" y="189.58" width="3.18" height="3.18"/><rect class="cls-5" x="260.59" y="192.75" width="44.49" height="3.18"/><rect class="cls-5" x="263.77" y="189.58" width="34.96" height="3.18"/><rect class="cls-5" x="270.13" y="186.4" width="22.25" height="3.18"/><polygon class="cls-5" points="276.48 183.22 273.31 183.22 273.31 186.4 276.48 186.4 279.66 186.4 279.66 183.22 276.48 183.22"/><polygon class="cls-5" points="282.84 183.22 279.66 183.22 279.66 186.4 282.84 186.4 286.02 186.4 286.02 183.22 282.84 183.22"/><polygon class="cls-11" points="276.48 192.75 263.77 192.75 263.77 195.93 276.48 195.93 289.19 195.93 289.19 192.75 276.48 192.75"/><rect class="cls-12" x="282.84" y="186.4" width="9.53" height="3.18"/><rect class="cls-12" x="276.48" y="183.22" width="9.53" height="3.18"/><rect class="cls-12" x="289.19" y="189.58" width="9.53" height="3.18"/><rect class="cls-12" x="295.55" y="192.75" width="9.53" height="3.18"/><rect class="cls-7" x="282.84" y="183.22" width="3.18" height="3.18"/><rect class="cls-7" x="289.19" y="186.4" width="3.18" height="3.18"/><rect class="cls-7" x="295.55" y="189.58" width="3.18" height="3.18"/><rect class="cls-7" x="301.91" y="192.75" width="3.18" height="3.18"/><rect class="cls-11" x="279.66" y="189.58" width="3.18" height="3.18"/><rect class="cls-11" x="270.13" y="189.58" width="3.18" height="3.18"/><rect class="cls-5" x="79.45" y="192.75" width="50.85" height="3.18"/><rect class="cls-5" x="92.16" y="189.58" width="63.56" height="3.18"/><rect class="cls-5" x="98.52" y="186.4" width="31.78" height="3.18"/><rect class="cls-5" x="114.41" y="192.75" width="50.85" height="3.18"/><rect class="cls-5" x="108.05" y="183.22" width="34.96" height="3.18"/><rect class="cls-5" x="130.3" y="186.4" width="22.25" height="3.18"/><rect class="cls-11" x="130.3" y="186.4" width="9.53" height="3.18"/><polygon class="cls-5" points="136.65 183.22 133.47 183.22 133.47 186.4 136.65 186.4 139.83 186.4 139.83 183.22 136.65 183.22"/><polygon class="cls-5" points="143.01 183.22 139.83 183.22 139.83 186.4 143.01 186.4 146.19 186.4 146.19 183.22 143.01 183.22"/><polygon class="cls-11" points="125.53 192.75 101.69 192.75 101.69 195.93 125.53 195.93 149.36 195.93 149.36 192.75 125.53 192.75"/><rect class="cls-12" x="143.01" y="186.4" width="9.53" height="3.18"/><rect class="cls-12" x="120.76" y="183.22" width="25.42" height="3.18"/><rect class="cls-12" x="149.36" y="189.58" width="9.53" height="3.18"/><rect class="cls-12" x="155.72" y="192.75" width="9.53" height="3.18"/><rect class="cls-7" x="143.01" y="183.22" width="3.18" height="3.18"/><rect class="cls-7" x="149.36" y="186.4" width="3.18" height="3.18"/><rect class="cls-7" x="155.72" y="189.58" width="3.18" height="3.18"/><rect class="cls-7" x="162.08" y="192.75" width="3.18" height="3.18"/><rect class="cls-11" x="139.83" y="189.58" width="3.18" height="3.18"/><rect class="cls-11" x="98.52" y="189.58" width="3.18" height="3.18"/><rect class="cls-11" x="104.87" y="189.58" width="25.42" height="3.18"/><rect class="cls-5" x="336.83" y="192.75" width="38.17" height="3.18"/><rect class="cls-5" x="349.55" y="189.58" width="25.45" height="3.18"/><rect class="cls-5" x="355.9" y="186.4" width="19.1" height="3.18"/><rect class="cls-5" x="365.44" y="183.22" width="9.56" height="3.18"/><polygon class="cls-11" points="367.04 192.75 359.08 192.75 359.08 195.93 367.04 195.93 375 195.93 375 192.75 367.04 192.75"/><rect class="cls-11" x="355.9" y="189.58" width="3.18" height="3.18"/><rect class="cls-11" x="371.79" y="186.4" width="3.18" height="3.18"/><rect class="cls-11" x="362.26" y="189.58" width="12.74" height="3.18"/><rect class="cls-5" x="346.34" y="195.93" width="12.74" height="3.18"/><rect class="cls-11" x="346.34" y="195.93" width="3.18" height="3.18"/><rect class="cls-11" x="238.35" y="192.75" width="3.18" height="3.18"/><rect class="cls-11" x="257.42" y="195.93" width="3.18" height="3.18"/><rect class="cls-11" x="305.08" y="195.93" width="3.18" height="3.18"/><rect class="cls-11" x="333.66" y="202.29" width="3.18" height="3.18"/><rect class="cls-11" x="359.08" y="208.64" width="3.18" height="3.18"/><rect class="cls-11" x="333.66" y="195.93" width="3.18" height="3.18"/><rect class="cls-11" x="241.53" y="195.93" width="3.18" height="3.18"/><rect class="cls-11" x="225.64" y="192.75" width="9.53" height="3.18"/><rect class="cls-5" x="66.74" y="195.93" width="3.18" height="3.18"/><polygon class="cls-11" points="184.32 199.11 171.61 199.11 171.61 202.29 184.32 202.29 197.03 202.29 197.03 199.11 184.32 199.11"/><polygon class="cls-5" points="189.09 199.11 181.14 199.11 181.14 202.29 189.09 202.29 197.03 202.29 197.03 199.11 189.09 199.11"/><polygon class="cls-5" points="273.31 199.11 270.13 199.11 270.13 202.29 273.31 202.29 276.48 202.29 276.48 199.11 273.31 199.11"/><polygon class="cls-11" points="271.72 202.29 263.77 202.29 263.77 205.47 271.72 205.47 279.66 205.47 279.66 202.29 271.72 202.29"/><polygon class="cls-11" points="177.97 202.29 165.25 202.29 165.25 205.47 177.97 205.47 190.68 205.47 190.68 202.29 177.97 202.29"/><rect class="cls-5" x="171.61" y="202.29" width="3.18" height="3.18"/><rect class="cls-5" x="158.9" y="202.29" width="6.36" height="3.18"/><rect class="cls-11" x="279.66" y="199.11" width="3.18" height="3.18"/><rect class="cls-11" x="225.64" y="205.47" width="3.18" height="3.18"/><rect class="cls-5" x="276.48" y="202.29" width="3.18" height="3.18"/><rect class="cls-5" x="282.84" y="202.29" width="3.18" height="3.18"/><polygon class="cls-11" points="88.98 202.29 82.63 202.29 82.63 205.47 88.98 205.47 95.34 205.47 95.34 202.29 88.98 202.29"/><rect class="cls-11" x="98.52" y="199.11" width="3.18" height="3.18"/><rect class="cls-11" x="149.36" y="205.47" width="3.18" height="3.18"/><rect class="cls-5" x="47.67" y="202.29" width="19.07" height="3.18" transform="translate(114.41 407.75) rotate(180)"/><rect class="cls-5" x="101.69" y="202.29" width="3.18" height="3.18"/><polygon class="cls-5" points="311.44 199.11 308.26 199.11 308.26 202.29 311.44 202.29 314.62 202.29 314.62 199.11 311.44 199.11"/><polygon class="cls-5" points="238.35 199.11 235.17 199.11 235.17 202.29 238.35 202.29 241.53 202.29 241.53 199.11 238.35 199.11"/><polygon class="cls-5" points="317.8 202.29 314.62 202.29 314.62 205.47 317.8 205.47 320.98 205.47 320.98 202.29 317.8 202.29"/><rect class="cls-11" x="320.97" y="202.29" width="3.18" height="3.18"/><rect class="cls-5" x="44.49" y="205.47" width="3.18" height="3.18"/><rect class="cls-5" x="22.25" y="205.47" width="3.18" height="3.18"/><rect class="cls-13" x="341.3" y="121.11" width="3.52" height="3.52"/><rect class="cls-14" x="341.3" y="117.59" width="3.52" height="3.52"/><rect class="cls-14" x="344.82" y="121.11" width="3.52" height="3.52"/><rect class="cls-14" x="337.79" y="121.11" width="3.52" height="3.52"/><rect class="cls-14" x="341.3" y="124.62" width="3.52" height="3.52"/><rect class="cls-13" x="319.39" y="84.18" width="3.52" height="3.52"/><rect class="cls-14" x="319.39" y="80.67" width="3.52" height="3.52"/><rect class="cls-14" x="322.91" y="84.18" width="3.52" height="3.52"/><rect class="cls-14" x="315.88" y="84.18" width="3.52" height="3.52"/><rect class="cls-14" x="319.39" y="87.7" width="3.52" height="3.52"/><rect class="cls-13" x="51.02" y="19.6" width="3.52" height="3.52"/><rect class="cls-14" x="51.02" y="16.08" width="3.52" height="3.52"/><rect class="cls-14" x="54.53" y="19.6" width="3.52" height="3.52"/><rect class="cls-14" x="47.5" y="19.6" width="3.52" height="3.52"/><rect class="cls-14" x="51.02" y="23.11" width="3.52" height="3.52"/><rect class="cls-13" x="17.31" y="66.99" width="3.52" height="3.52"/><rect class="cls-14" x="17.31" y="63.47" width="3.52" height="3.52"/><rect class="cls-14" x="20.83" y="66.99" width="3.52" height="3.52"/><rect class="cls-14" x="13.79" y="66.99" width="3.52" height="3.52"/><rect class="cls-14" x="17.31" y="70.51" width="3.52" height="3.52"/><rect class="cls-13" x="165.42" y="72.26" width="3.52" height="3.52"/><rect class="cls-14" x="165.42" y="68.75" width="3.52" height="3.52"/><rect class="cls-14" x="168.94" y="72.26" width="3.52" height="3.52"/><rect class="cls-14" x="161.91" y="72.26" width="3.52" height="3.52"/><rect class="cls-14" x="165.42" y="75.78" width="3.52" height="3.52"/><rect class="cls-13" x="106.29" y="132.75" width="3.52" height="3.52"/><rect class="cls-14" x="106.29" y="129.24" width="3.52" height="3.52"/><rect class="cls-14" x="109.81" y="132.75" width="3.52" height="3.52"/><rect class="cls-14" x="102.78" y="132.75" width="3.52" height="3.52"/><rect class="cls-14" x="106.29" y="136.27" width="3.52" height="3.52"/><rect class="cls-13" x="233.41" y="23.39" width="3.52" height="3.52"/><rect class="cls-14" x="233.41" y="19.87" width="3.52" height="3.52"/><rect class="cls-14" x="236.93" y="23.39" width="3.52" height="3.52"/><rect class="cls-14" x="229.9" y="23.39" width="3.52" height="3.52"/><rect class="cls-14" x="233.41" y="26.9" width="3.52" height="3.52"/><rect class="cls-13" x="167.18" y="158.39" width="3.52" height="3.52"/><rect class="cls-14" x="167.18" y="154.87" width="3.52" height="3.52"/><rect class="cls-14" x="170.7" y="158.39" width="3.52" height="3.52"/><rect class="cls-14" x="163.67" y="158.39" width="3.52" height="3.52"/><rect class="cls-14" x="167.18" y="161.9" width="3.52" height="3.52"/><rect class="cls-13" x="272.71" y="121.13" width="6.98" height="6.98"/><rect class="cls-15" x="272.71" y="117.64" width="6.98" height="3.49"/><rect class="cls-14" x="272.71" y="114.15" width="6.98" height="3.49"/><rect class="cls-15" x="267.47" y="122.88" width="6.98" height="3.49" transform="translate(395.58 -146.34) rotate(90)"/><rect class="cls-14" x="265.72" y="121.13" width="3.49" height="6.98"/><rect class="cls-15" x="277.94" y="122.88" width="6.98" height="3.49" transform="translate(406.06 -156.81) rotate(90)"/><rect class="cls-14" x="283.18" y="121.13" width="3.49" height="6.98"/><rect class="cls-15" x="272.71" y="128.12" width="6.98" height="3.49"/><rect class="cls-14" x="272.71" y="131.61" width="6.98" height="3.49"/><rect class="cls-14" x="269.21" y="117.64" width="3.49" height="3.49"/><rect class="cls-14" x="279.69" y="117.64" width="3.49" height="3.49"/><rect class="cls-14" x="269.21" y="128.12" width="3.49" height="3.49"/><rect class="cls-14" x="279.69" y="128.12" width="3.49" height="3.49"/><rect class="cls-14" x="265.72" y="114.15" width="3.49" height="3.49"/><rect class="cls-14" x="283.18" y="114.15" width="3.49" height="3.49"/><rect class="cls-14" x="265.72" y="131.61" width="3.49" height="3.49"/><rect class="cls-14" x="283.18" y="131.61" width="3.49" height="3.49"/><rect class="cls-13" x="288.04" y="26.63" width="6.98" height="6.98"/><rect class="cls-15" x="288.04" y="23.14" width="6.98" height="3.49"/><rect class="cls-14" x="288.04" y="19.65" width="6.98" height="3.49"/><rect class="cls-15" x="282.81" y="28.38" width="6.98" height="3.49" transform="translate(316.42 -256.18) rotate(90)"/><rect class="cls-14" x="281.06" y="26.63" width="3.49" height="6.98"/><rect class="cls-15" x="293.28" y="28.38" width="6.98" height="3.49" transform="translate(326.9 -266.65) rotate(90)"/><rect class="cls-14" x="298.52" y="26.63" width="3.49" height="6.98"/><rect class="cls-15" x="288.04" y="33.61" width="6.98" height="3.49"/><rect class="cls-14" x="288.04" y="37.11" width="6.98" height="3.49"/><rect class="cls-14" x="284.55" y="23.14" width="3.49" height="3.49"/><rect class="cls-14" x="295.03" y="23.14" width="3.49" height="3.49"/><rect class="cls-14" x="284.55" y="33.61" width="3.49" height="3.49"/><rect class="cls-14" x="295.03" y="33.61" width="3.49" height="3.49"/><rect class="cls-14" x="281.06" y="19.65" width="3.49" height="3.49"/><rect class="cls-14" x="298.52" y="19.65" width="3.49" height="3.49"/><rect class="cls-14" x="281.06" y="37.11" width="3.49" height="3.49"/><rect class="cls-14" x="298.52" y="37.11" width="3.49" height="3.49"/><rect class="cls-13" x="103.16" y="31.91" width="6.98" height="6.98"/><rect class="cls-15" x="103.16" y="28.42" width="6.98" height="3.49"/><rect class="cls-14" x="103.16" y="24.93" width="6.98" height="3.49"/><rect class="cls-15" x="97.92" y="33.66" width="6.98" height="3.49" transform="translate(136.82 -66.01) rotate(90)"/><rect class="cls-14" x="96.18" y="31.91" width="3.49" height="6.98"/><rect class="cls-15" x="108.4" y="33.66" width="6.98" height="3.49" transform="translate(147.29 -76.48) rotate(90)"/><rect class="cls-14" x="113.64" y="31.91" width="3.49" height="6.98"/><rect class="cls-15" x="103.16" y="38.9" width="6.98" height="3.49"/><rect class="cls-14" x="103.16" y="42.39" width="6.98" height="3.49"/><rect class="cls-14" x="99.67" y="28.42" width="3.49" height="3.49"/><rect class="cls-14" x="110.14" y="28.42" width="3.49" height="3.49"/><rect class="cls-14" x="99.67" y="38.9" width="3.49" height="3.49"/><rect class="cls-14" x="110.14" y="38.9" width="3.49" height="3.49"/><rect class="cls-14" x="96.18" y="24.93" width="3.49" height="3.49"/><rect class="cls-14" x="113.64" y="24.93" width="3.49" height="3.49"/><rect class="cls-14" x="96.18" y="42.39" width="3.49" height="3.49"/><rect class="cls-14" x="113.64" y="42.39" width="3.49" height="3.49"/><polygon class="cls-16" points="338.25 46.47 338.25 43.31 335.09 43.31 335.09 40.15 331.93 40.15 331.93 36.98 328.76 36.98 325.6 36.98 322.44 36.98 322.44 40.15 319.28 40.15 319.28 43.31 316.12 43.31 316.12 46.47 312.96 46.47 312.96 55.95 316.12 55.95 316.12 59.12 319.28 59.12 319.28 62.28 322.44 62.28 322.44 65.44 325.6 65.44 331.93 65.44 331.93 62.28 335.09 62.28 335.09 59.12 338.25 59.12 338.25 55.95 341.41 55.95 341.41 52.79 341.41 46.47 338.25 46.47"/><rect class="cls-17" x="331.93" y="40.15" width="3.16" height="3.16"/><rect class="cls-17" x="328.76" y="55.96" width="3.16" height="3.16"/><rect class="cls-17" x="325.6" y="46.47" width="3.16" height="3.16"/><rect class="cls-17" x="322.44" y="49.63" width="3.16" height="3.16"/><rect class="cls-17" x="319.28" y="40.15" width="3.16" height="3.16"/><rect class="cls-17" x="325.6" y="36.99" width="6.32" height="3.16"/><rect class="cls-18" x="322.44" y="62.28" width="9.49" height="3.16"/><rect class="cls-17" x="335.09" y="43.31" width="3.16" height="3.16"/><rect class="cls-17" x="319.28" y="55.96" width="3.16" height="3.16"/><rect class="cls-17" x="316.12" y="43.31" width="3.16" height="3.16"/><rect class="cls-18" x="312.96" y="46.47" width="3.16" height="9.49"/><rect class="cls-17" x="338.25" y="46.47" width="3.16" height="6.32"/><rect class="cls-17" x="338.25" y="52.79" width="3.16" height="3.16"/><rect class="cls-18" x="316.12" y="52.79" width="3.16" height="6.32"/><rect class="cls-18" x="319.28" y="46.47" width="3.16" height="3.16"/><rect class="cls-18" x="328.76" y="49.63" width="3.16" height="3.16"/><rect class="cls-18" x="331.93" y="52.79" width="3.16" height="3.16"/><rect class="cls-18" x="331.93" y="59.12" width="3.16" height="3.16"/><rect class="cls-18" x="319.28" y="59.12" width="6.32" height="3.16"/><rect class="cls-18" x="325.6" y="52.79" width="3.16" height="6.32"/><polygon class="cls-19" points="83.36 98.33 86.45 98.33 86.45 95.23 83.36 95.23 83.36 92.13 77.17 92.13 77.17 95.23 77.17 98.33 77.17 101.42 83.36 101.42 83.36 98.33"/><rect class="cls-13" x="72.52" y="90.58" width="3.1" height="12.39" transform="translate(170.85 22.71) rotate(90)"/><rect class="cls-19" x="60.13" y="87.49" width="6.19" height="3.1" transform="translate(152.27 25.8) rotate(90)"/><rect class="cls-19" x="60.14" y="102.97" width="6.19" height="3.1" transform="translate(167.75 41.29) rotate(90)"/><rect class="cls-20" x="60.13" y="87.49" width="6.19" height="3.1" transform="translate(152.27 25.8) rotate(90)"/><rect class="cls-13" x="57.04" y="87.49" width="6.19" height="3.1" transform="translate(149.17 28.9) rotate(90)"/><rect class="cls-13" x="57.04" y="102.97" width="6.19" height="3.1" transform="translate(164.65 44.38) rotate(90)"/><rect class="cls-20" x="60.14" y="102.97" width="6.19" height="3.1" transform="translate(167.75 41.29) rotate(90)"/><rect class="cls-20" x="77.17" y="79.75" width="3.1" height="3.1" transform="translate(160.01 2.58) rotate(90)"/><rect class="cls-20" x="86.45" y="95.23" width="3.1" height="3.1" transform="translate(184.78 8.77) rotate(90)"/><polygon class="cls-19" points="74.07 113.81 77.17 113.81 77.17 110.71 74.07 110.71 74.07 107.61 70.97 107.61 70.97 101.42 67.88 101.42 67.88 92.13 70.97 92.13 70.97 85.94 74.07 85.94 74.07 82.84 77.17 82.84 77.17 79.75 74.07 79.75 74.07 76.65 64.78 76.65 64.78 116.9 74.07 116.9 74.07 113.81"/><rect class="cls-20" x="77.17" y="110.71" width="3.1" height="3.1" transform="translate(190.97 33.55) rotate(90)"/><polygon class="cls-21" points="77.17 89.04 70.97 89.04 70.97 92.13 67.88 92.13 67.88 95.23 77.17 95.23 77.17 92.13 77.17 89.04"/><polygon class="cls-21" points="77.17 101.42 77.17 98.33 67.88 98.33 67.88 101.42 70.97 101.42 70.97 104.52 77.17 104.52 77.17 101.42"/><rect class="cls-20" x="66.33" y="78.2" width="3.1" height="6.19" transform="translate(149.17 13.42) rotate(90)"/><rect class="cls-13" x="61.68" y="79.75" width="9.29" height="3.1" transform="translate(147.62 14.97) rotate(90)"/><rect class="cls-20" x="66.33" y="109.16" width="3.1" height="6.19" transform="translate(180.14 44.38) rotate(90)"/><rect class="cls-13" x="61.68" y="110.71" width="9.29" height="3.1" transform="translate(178.59 45.93) rotate(90)"/><rect class="cls-13" x="95.2" y="95.23" width="3.1" height="3.1" transform="translate(193.53 0.03) rotate(90)"/><rect class="cls-18" x="51.23" y="87.49" width="6.19" height="3.1" transform="translate(143.36 34.71) rotate(90)"/><rect class="cls-16" x="49.68" y="89.04" width="3.1" height="3.1" transform="translate(141.81 39.36) rotate(90)"/><rect class="cls-16" x="52.78" y="85.94" width="3.1" height="3.1" transform="translate(141.81 33.16) rotate(90)"/><rect class="cls-16" x="58" y="78.2" width="3.1" height="6.19" transform="translate(140.84 21.75) rotate(90)"/><rect class="cls-16" x="58" y="109.16" width="3.1" height="6.19" transform="translate(171.81 52.71) rotate(90)"/><rect class="cls-18" x="51.23" y="102.97" width="6.19" height="3.1" transform="translate(-50.19 158.84) rotate(-90)"/><rect class="cls-16" x="49.68" y="101.42" width="3.1" height="3.1" transform="translate(-51.74 154.2) rotate(-90)"/><rect class="cls-16" x="52.78" y="104.52" width="3.1" height="3.1" transform="translate(-51.74 160.39) rotate(-90)"/><rect class="cls-13" x="88" y="79.75" width="3.1" height="3.1" transform="translate(170.85 -8.26) rotate(90)"/><rect class="cls-13" x="88" y="110.71" width="3.1" height="3.1" transform="translate(201.81 22.71) rotate(90)"/><rect class="cls-13" x="102.16" y="95.23" width="3.1" height="3.1" transform="translate(200.48 -6.93) rotate(90)"/><rect class="cls-13" x="94.96" y="79.75" width="3.1" height="3.1" transform="translate(177.8 -15.21) rotate(90)"/><rect class="cls-13" x="94.96" y="110.71" width="3.1" height="3.1" transform="translate(208.76 15.75) rotate(90)"/><rect class="cls-13" x="109.36" y="95.23" width="3.1" height="3.1" transform="translate(207.68 -14.13) rotate(90)"/><rect class="cls-13" x="102.16" y="79.75" width="3.1" height="3.1" transform="translate(185 -22.41) rotate(90)"/><rect class="cls-13" x="102.16" y="110.71" width="3.1" height="3.1" transform="translate(215.97 8.55) rotate(90)"/><polygon class="cls-22" points="223.31 77.78 204.93 77.78 204.93 103.52 208.6 103.52 208.6 103.52 208.6 107.2 219.64 107.2 219.64 103.52 219.64 103.52 223.31 103.52 223.31 77.78"/><rect class="cls-23" x="208.6" y="81.46" width="7.35" height="7.35"/><rect class="cls-23" x="208.6" y="88.81" width="7.35" height="3.68"/><rect class="cls-23" x="208.6" y="99.84" width="7.35" height="3.68"/><rect class="cls-13" x="208.6" y="81.46" width="3.68" height="3.68"/><rect class="cls-13" x="208.6" y="85.13" width="3.68" height="3.68"/><rect class="cls-16" x="201.25" y="81.46" width="3.68" height="14.71"/><rect class="cls-16" x="219.64" y="81.46" width="7.35" height="14.71"/><rect class="cls-18" x="223.31" y="81.46" width="3.68" height="14.71"/><rect class="cls-13" x="204.93" y="74.1" width="3.68" height="3.68"/><rect class="cls-13" x="215.96" y="74.1" width="3.68" height="3.68"/><rect class="cls-23" x="215.96" y="96.17" width="3.68" height="3.68"/><rect class="cls-24" x="219.64" y="96.17" width="3.68" height="7.35"/><rect class="cls-16" x="201.25" y="70.42" width="3.68" height="3.68"/><rect class="cls-16" x="219.64" y="70.42" width="3.68" height="3.68"/><rect class="cls-16" x="226.99" y="114.55" width="3.68" height="3.68"/><rect class="cls-16" x="245.38" y="110.88" width="3.68" height="3.68"/><rect class="cls-16" x="223.31" y="118.23" width="3.68" height="3.68"/><rect class="cls-16" x="249.06" y="107.2" width="3.68" height="3.68"/><rect class="cls-16" x="234.35" y="114.55" width="3.68" height="7.35"/><rect class="cls-16" x="241.7" y="114.55" width="3.68" height="7.35"/><polygon class="cls-22" points="230.67 70.42 230.67 96.17 234.35 96.17 234.35 99.84 245.38 99.84 245.38 96.17 249.06 96.17 249.06 70.42 230.67 70.42"/><rect class="cls-23" x="234.35" y="74.1" width="7.35" height="7.35"/><rect class="cls-23" x="234.35" y="81.46" width="7.35" height="3.68"/><rect class="cls-23" x="234.35" y="92.49" width="7.35" height="3.68"/><rect class="cls-13" x="234.35" y="74.1" width="3.68" height="3.68"/><rect class="cls-13" x="234.35" y="77.78" width="3.68" height="3.68"/><rect class="cls-16" x="226.99" y="74.1" width="3.68" height="14.71"/><rect class="cls-16" x="245.38" y="74.1" width="7.35" height="14.71"/><rect class="cls-18" x="249.06" y="74.1" width="3.68" height="14.71"/><rect class="cls-13" x="230.67" y="66.75" width="3.68" height="3.68"/><rect class="cls-13" x="241.7" y="66.75" width="3.68" height="3.68"/><rect class="cls-23" x="241.7" y="88.81" width="3.68" height="3.68"/><rect class="cls-24" x="245.38" y="88.81" width="3.68" height="7.53"/><rect class="cls-16" x="226.99" y="63.07" width="3.68" height="3.68"/><rect class="cls-16" x="245.38" y="63.07" width="3.68" height="3.68"/><rect class="cls-22" x="234.35" y="103.52" width="7.35" height="14.71" transform="translate(348.9 -127.15) rotate(90)"/><rect class="cls-13" x="241.7" y="99.84" width="3.68" height="7.35"/><rect class="cls-13" x="225.15" y="101.68" width="3.68" height="7.35" transform="translate(121.63 332.35) rotate(-90)"/></g></g></svg>