<svg xmlns="http://www.w3.org/2000/svg" viewBox="0 0 375 215"><defs><style>.cls-1{opacity:0.2;}.cls-2{fill:#88f;}.cls-3{fill:#eaac68;}.cls-4,.cls-5,.cls-6,.cls-7{fill:#d88a3d;}.cls-4{opacity:0.75;}.cls-6{opacity:0.5;}.cls-7{opacity:0.25;}.cls-8{fill:#c97a32;}.cls-9{fill:#e5a35d;}.cls-10{fill:#7676ff;}.cls-11{fill:#6d66ff;}.cls-12{fill:#6b5bfc;}.cls-13{fill:#c0c0ff;}.cls-14{fill:#f297ff;}.cls-15{fill:#fff;}.cls-16{fill:#e1e1ff;}.cls-17{fill:#f7caff;}</style></defs><title>bg03</title><g id="Layer_2" data-name="Layer 2"><g id="Layer_1-2" data-name="Layer 1"><g class="cls-1"><rect class="cls-2" width="375" height="215"/><polygon class="cls-3" points="333.69 195.93 333.69 199.11 320.98 199.11 308.26 199.11 308.26 195.93 257.42 195.93 257.42 199.11 241.53 199.11 241.53 195.93 73.09 195.93 73.09 199.11 63.56 199.11 54.02 199.11 54.02 195.93 0 195.93 0 215 375 215 375 195.93 333.69 195.93"/><rect class="cls-4" y="208.64" width="375" height="3.18" transform="translate(375 420.47) rotate(180)"/><rect class="cls-5" y="211.82" width="375" height="3.18" transform="translate(375 426.82) rotate(180)"/><rect class="cls-6" y="205.47" width="375" height="3.18" transform="translate(375 414.11) rotate(180)"/><rect class="cls-7" y="202.29" width="375" height="3.18" transform="translate(375 407.75) rotate(180)"/><rect class="cls-5" y="192.75" width="50.85" height="3.18"/><rect class="cls-5" x="9.53" y="189.58" width="34.96" height="3.18"/><rect class="cls-5" x="15.89" y="186.4" width="22.25" height="3.18"/><polygon class="cls-5" points="22.25 183.22 19.07 183.22 19.07 186.4 22.25 186.4 25.42 186.4 25.42 183.22 22.25 183.22"/><polygon class="cls-5" points="28.6 183.22 25.42 183.22 25.42 186.4 28.6 186.4 31.78 186.4 31.78 183.22 28.6 183.22"/><polygon class="cls-8" points="25.42 192.75 15.89 192.75 15.89 195.93 25.42 195.93 34.96 195.93 34.96 192.75 25.42 192.75"/><rect class="cls-9" x="28.6" y="186.4" width="9.53" height="3.18"/><rect class="cls-9" x="22.25" y="183.22" width="9.53" height="3.18"/><rect class="cls-9" x="34.96" y="189.58" width="9.53" height="3.18"/><rect class="cls-9" x="41.31" y="192.75" width="9.53" height="3.18"/><rect class="cls-3" x="28.6" y="183.22" width="3.18" height="3.18"/><rect class="cls-3" x="34.96" y="186.4" width="3.18" height="3.18"/><rect class="cls-3" x="41.31" y="189.58" width="3.18" height="3.18"/><rect class="cls-3" x="47.67" y="192.75" width="3.18" height="3.18"/><rect class="cls-8" x="25.42" y="189.58" width="3.18" height="3.18"/><rect class="cls-5" x="171.61" y="192.75" width="44.49" height="3.18"/><rect class="cls-5" x="174.79" y="189.58" width="34.96" height="3.18"/><rect class="cls-5" x="181.14" y="186.4" width="22.25" height="3.18"/><polygon class="cls-5" points="187.5 183.22 184.32 183.22 184.32 186.4 187.5 186.4 190.68 186.4 190.68 183.22 187.5 183.22"/><polygon class="cls-5" points="193.86 183.22 190.68 183.22 190.68 186.4 193.86 186.4 197.03 186.4 197.03 183.22 193.86 183.22"/><polygon class="cls-8" points="187.5 192.75 174.79 192.75 174.79 195.93 187.5 195.93 200.21 195.93 200.21 192.75 187.5 192.75"/><rect class="cls-9" x="193.86" y="186.4" width="9.53" height="3.18"/><rect class="cls-9" x="187.5" y="183.22" width="9.53" height="3.18"/><rect class="cls-9" x="200.21" y="189.58" width="9.53" height="3.18"/><rect class="cls-9" x="206.57" y="192.75" width="9.53" height="3.18"/><rect class="cls-3" x="193.86" y="183.22" width="3.18" height="3.18"/><rect class="cls-3" x="200.21" y="186.4" width="3.18" height="3.18"/><rect class="cls-3" x="206.57" y="189.58" width="3.18" height="3.18"/><rect class="cls-3" x="212.92" y="192.75" width="3.18" height="3.18"/><rect class="cls-8" x="190.68" y="189.58" width="3.18" height="3.18"/><rect class="cls-8" x="181.14" y="189.58" width="3.18" height="3.18"/><rect class="cls-5" x="260.59" y="192.75" width="44.49" height="3.18"/><rect class="cls-5" x="263.77" y="189.58" width="34.96" height="3.18"/><rect class="cls-5" x="270.13" y="186.4" width="22.25" height="3.18"/><polygon class="cls-5" points="276.48 183.22 273.31 183.22 273.31 186.4 276.48 186.4 279.66 186.4 279.66 183.22 276.48 183.22"/><polygon class="cls-5" points="282.84 183.22 279.66 183.22 279.66 186.4 282.84 186.4 286.02 186.4 286.02 183.22 282.84 183.22"/><polygon class="cls-8" points="276.48 192.75 263.77 192.75 263.77 195.93 276.48 195.93 289.19 195.93 289.19 192.75 276.48 192.75"/><rect class="cls-9" x="282.84" y="186.4" width="9.53" height="3.18"/><rect class="cls-9" x="276.48" y="183.22" width="9.53" height="3.18"/><rect class="cls-9" x="289.19" y="189.58" width="9.53" height="3.18"/><rect class="cls-9" x="295.55" y="192.75" width="9.53" height="3.18"/><rect class="cls-3" x="282.84" y="183.22" width="3.18" height="3.18"/><rect class="cls-3" x="289.19" y="186.4" width="3.18" height="3.18"/><rect class="cls-3" x="295.55" y="189.58" width="3.18" height="3.18"/><rect class="cls-3" x="301.91" y="192.75" width="3.18" height="3.18"/><rect class="cls-8" x="279.66" y="189.58" width="3.18" height="3.18"/><rect class="cls-8" x="270.13" y="189.58" width="3.18" height="3.18"/><rect class="cls-5" x="79.45" y="192.75" width="50.85" height="3.18"/><rect class="cls-5" x="92.16" y="189.58" width="63.56" height="3.18"/><rect class="cls-5" x="98.52" y="186.4" width="31.78" height="3.18"/><rect class="cls-5" x="114.41" y="192.75" width="50.85" height="3.18"/><rect class="cls-5" x="108.05" y="183.22" width="34.96" height="3.18"/><rect class="cls-5" x="130.3" y="186.4" width="22.25" height="3.18"/><rect class="cls-8" x="130.3" y="186.4" width="9.53" height="3.18"/><polygon class="cls-5" points="136.65 183.22 133.47 183.22 133.47 186.4 136.65 186.4 139.83 186.4 139.83 183.22 136.65 183.22"/><polygon class="cls-5" points="143.01 183.22 139.83 183.22 139.83 186.4 143.01 186.4 146.19 186.4 146.19 183.22 143.01 183.22"/><polygon class="cls-8" points="125.53 192.75 101.69 192.75 101.69 195.93 125.53 195.93 149.36 195.93 149.36 192.75 125.53 192.75"/><rect class="cls-9" x="143.01" y="186.4" width="9.53" height="3.18"/><rect class="cls-9" x="120.76" y="183.22" width="25.42" height="3.18"/><rect class="cls-9" x="149.36" y="189.58" width="9.53" height="3.18"/><rect class="cls-9" x="155.72" y="192.75" width="9.53" height="3.18"/><rect class="cls-3" x="143.01" y="183.22" width="3.18" height="3.18"/><rect class="cls-3" x="149.36" y="186.4" width="3.18" height="3.18"/><rect class="cls-3" x="155.72" y="189.58" width="3.18" height="3.18"/><rect class="cls-3" x="162.08" y="192.75" width="3.18" height="3.18"/><rect class="cls-8" x="139.83" y="189.58" width="3.18" height="3.18"/><rect class="cls-8" x="98.52" y="189.58" width="3.18" height="3.18"/><rect class="cls-8" x="104.87" y="189.58" width="25.42" height="3.18"/><rect class="cls-5" x="336.83" y="192.75" width="38.17" height="3.18"/><rect class="cls-5" x="349.55" y="189.58" width="25.45" height="3.18"/><rect class="cls-5" x="355.9" y="186.4" width="19.1" height="3.18"/><rect class="cls-5" x="365.44" y="183.22" width="9.56" height="3.18"/><polygon class="cls-8" points="367.04 192.75 359.08 192.75 359.08 195.93 367.04 195.93 375 195.93 375 192.75 367.04 192.75"/><rect class="cls-8" x="355.9" y="189.58" width="3.18" height="3.18"/><rect class="cls-8" x="371.79" y="186.4" width="3.18" height="3.18"/><rect class="cls-8" x="362.26" y="189.58" width="12.74" height="3.18"/><rect class="cls-5" x="346.34" y="195.93" width="12.74" height="3.18"/><rect class="cls-8" x="346.34" y="195.93" width="3.18" height="3.18"/><rect class="cls-8" x="238.35" y="192.75" width="3.18" height="3.18"/><rect class="cls-8" x="257.42" y="195.93" width="3.18" height="3.18"/><rect class="cls-8" x="305.08" y="195.93" width="3.18" height="3.18"/><rect class="cls-8" x="333.66" y="202.29" width="3.18" height="3.18"/><rect class="cls-8" x="359.08" y="208.64" width="3.18" height="3.18"/><rect class="cls-8" x="333.66" y="195.93" width="3.18" height="3.18"/><rect class="cls-8" x="241.53" y="195.93" width="3.18" height="3.18"/><rect class="cls-8" x="225.64" y="192.75" width="9.53" height="3.18"/><rect class="cls-5" x="66.74" y="195.93" width="3.18" height="3.18"/><polygon class="cls-8" points="184.32 199.11 171.61 199.11 171.61 202.29 184.32 202.29 197.03 202.29 197.03 199.11 184.32 199.11"/><polygon class="cls-5" points="189.09 199.11 181.14 199.11 181.14 202.29 189.09 202.29 197.03 202.29 197.03 199.11 189.09 199.11"/><polygon class="cls-5" points="273.31 199.11 270.13 199.11 270.13 202.29 273.31 202.29 276.48 202.29 276.48 199.11 273.31 199.11"/><polygon class="cls-8" points="271.72 202.29 263.77 202.29 263.77 205.47 271.72 205.47 279.66 205.47 279.66 202.29 271.72 202.29"/><polygon class="cls-8" points="177.97 202.29 165.25 202.29 165.25 205.47 177.97 205.47 190.68 205.47 190.68 202.29 177.97 202.29"/><rect class="cls-5" x="171.61" y="202.29" width="3.18" height="3.18"/><rect class="cls-5" x="158.9" y="202.29" width="6.36" height="3.18"/><rect class="cls-8" x="279.66" y="199.11" width="3.18" height="3.18"/><rect class="cls-8" x="225.64" y="205.47" width="3.18" height="3.18"/><rect class="cls-5" x="276.48" y="202.29" width="3.18" height="3.18"/><rect class="cls-5" x="282.84" y="202.29" width="3.18" height="3.18"/><polygon class="cls-8" points="88.98 202.29 82.63 202.29 82.63 205.47 88.98 205.47 95.34 205.47 95.34 202.29 88.98 202.29"/><rect class="cls-8" x="98.52" y="199.11" width="3.18" height="3.18"/><rect class="cls-8" x="149.36" y="205.47" width="3.18" height="3.18"/><rect class="cls-5" x="47.67" y="202.29" width="19.07" height="3.18" transform="translate(114.41 407.75) rotate(180)"/><rect class="cls-5" x="101.69" y="202.29" width="3.18" height="3.18"/><polygon class="cls-5" points="311.44 199.11 308.26 199.11 308.26 202.29 311.44 202.29 314.62 202.29 314.62 199.11 311.44 199.11"/><polygon class="cls-5" points="238.35 199.11 235.17 199.11 235.17 202.29 238.35 202.29 241.53 202.29 241.53 199.11 238.35 199.11"/><polygon class="cls-5" points="317.8 202.29 314.62 202.29 314.62 205.47 317.8 205.47 320.98 205.47 320.98 202.29 317.8 202.29"/><rect class="cls-8" x="320.97" y="202.29" width="3.18" height="3.18"/><rect class="cls-5" x="44.49" y="205.47" width="3.18" height="3.18"/><rect class="cls-5" x="22.25" y="205.47" width="3.18" height="3.18"/><rect class="cls-10" width="375" height="145"/><rect class="cls-11" width="375" height="100"/><rect class="cls-12" width="375" height="55"/><rect class="cls-13" x="82.63" y="106.37" width="44.49" height="3.18"/><rect class="cls-13" x="85.81" y="103.19" width="34.96" height="3.18"/><rect class="cls-13" x="92.16" y="100.01" width="22.25" height="3.18"/><polygon class="cls-14" points="98.52 96.83 95.34 96.83 95.34 100.01 98.52 100.01 101.69 100.01 101.69 96.83 98.52 96.83"/><rect class="cls-15" x="104.87" y="100.14" width="9.53" height="3.18"/><rect class="cls-15" x="111.23" y="103.32" width="9.53" height="3.18"/><rect class="cls-15" x="117.58" y="106.37" width="9.53" height="3.18"/><rect class="cls-15" x="98.52" y="96.96" width="9.53" height="3.18"/><rect class="cls-16" x="101.69" y="103.32" width="9.53" height="3.18"/><rect class="cls-16" x="98.52" y="100.14" width="9.53" height="3.18"/><rect class="cls-16" x="95.34" y="96.83" width="6.36" height="3.18"/><rect class="cls-16" x="108.05" y="106.37" width="9.53" height="3.18"/><rect class="cls-13" x="312.84" y="148.26" width="44.49" height="3.18"/><rect class="cls-13" x="316.02" y="145.08" width="34.96" height="3.18"/><rect class="cls-13" x="322.38" y="141.91" width="22.25" height="3.18"/><polygon class="cls-14" points="328.73 138.73 325.55 138.73 325.55 141.91 328.73 141.91 331.91 141.91 331.91 138.73 328.73 138.73"/><rect class="cls-15" x="335.09" y="141.91" width="9.53" height="3.18"/><rect class="cls-15" x="341.44" y="145.08" width="9.53" height="3.18"/><rect class="cls-15" x="347.8" y="148.26" width="9.53" height="3.18"/><rect class="cls-15" x="328.73" y="138.73" width="9.53" height="3.18"/><rect class="cls-16" x="331.91" y="145.08" width="9.53" height="3.18"/><rect class="cls-16" x="328.73" y="141.91" width="9.53" height="3.18"/><rect class="cls-16" x="325.55" y="138.73" width="6.36" height="3.18"/><rect class="cls-16" x="338.27" y="148.26" width="9.53" height="3.18"/><rect class="cls-13" x="22.25" y="39.59" width="22.25" height="3.18"/><rect class="cls-13" x="19.07" y="42.77" width="25.42" height="3.18"/><rect class="cls-13" x="12.71" y="45.95" width="22.25" height="3.18"/><polygon class="cls-14" points="28.6 36.41 25.42 36.41 25.42 39.59 28.6 39.59 31.78 39.59 31.78 36.41 28.6 36.41"/><rect class="cls-15" x="34.96" y="39.59" width="9.53" height="3.18"/><rect class="cls-15" x="41.31" y="42.77" width="9.53" height="3.18"/><rect class="cls-15" x="47.67" y="45.95" width="9.53" height="3.18"/><rect class="cls-15" x="28.6" y="36.42" width="9.53" height="3.18"/><rect class="cls-16" x="28.6" y="39.59" width="9.53" height="3.18"/><rect class="cls-16" x="31.78" y="42.77" width="9.53" height="3.18"/><rect class="cls-16" x="25.42" y="36.42" width="6.36" height="3.18"/><rect class="cls-16" x="38.14" y="45.95" width="9.53" height="3.18"/><rect class="cls-13" x="228.81" y="128.78" width="22.25" height="3.18"/><rect class="cls-13" x="225.64" y="131.96" width="25.42" height="3.18"/><rect class="cls-13" x="219.28" y="135.13" width="22.25" height="3.18"/><polygon class="cls-14" points="235.17 125.6 231.99 125.6 231.99 128.78 235.17 128.78 238.35 128.78 238.35 125.6 235.17 125.6"/><rect class="cls-15" x="241.53" y="128.78" width="9.53" height="3.18"/><rect class="cls-15" x="247.88" y="131.96" width="9.53" height="3.18"/><rect class="cls-15" x="254.24" y="135.13" width="9.53" height="3.18"/><rect class="cls-15" x="235.17" y="125.6" width="9.53" height="3.18"/><rect class="cls-16" x="235.17" y="128.78" width="9.53" height="3.18"/><rect class="cls-16" x="238.35" y="131.96" width="9.53" height="3.18"/><rect class="cls-16" x="231.99" y="125.6" width="6.36" height="3.18"/><rect class="cls-16" x="244.7" y="135.13" width="9.53" height="3.18"/><rect class="cls-13" x="320.79" y="86.02" width="44.49" height="3.18"/><rect class="cls-13" x="323.96" y="82.85" width="34.96" height="3.18"/><polygon class="cls-14" points="336.68 76.49 333.5 76.49 333.5 79.67 336.68 79.67 339.86 79.67 339.86 76.49 336.68 76.49"/><rect class="cls-15" x="349.39" y="82.85" width="9.53" height="3.18"/><rect class="cls-15" x="355.74" y="86.02" width="9.53" height="3.18"/><rect class="cls-16" x="339.85" y="82.85" width="9.53" height="3.18"/><rect class="cls-17" x="336.68" y="79.67" width="9.53" height="3.18"/><rect class="cls-17" x="333.5" y="76.49" width="6.36" height="3.18"/><rect class="cls-16" x="346.21" y="86.02" width="9.53" height="3.18"/><rect class="cls-13" x="304.9" y="79.67" width="44.49" height="3.18"/><rect class="cls-13" x="308.08" y="76.49" width="34.96" height="3.18"/><rect class="cls-13" x="314.43" y="73.31" width="22.25" height="3.18"/><rect class="cls-13" x="292.19" y="86.02" width="25.42" height="3.18"/><polygon class="cls-14" points="320.79 70.13 317.61 70.13 317.61 73.31 320.79 73.31 323.96 73.31 323.96 70.13 320.79 70.13"/><rect class="cls-15" x="327.14" y="73.31" width="9.53" height="3.18"/><rect class="cls-15" x="308.08" y="86.02" width="9.53" height="3.18"/><rect class="cls-15" x="333.5" y="76.49" width="9.53" height="3.18"/><rect class="cls-15" x="339.85" y="79.67" width="9.53" height="3.18"/><rect class="cls-15" x="320.79" y="70.13" width="9.53" height="3.18"/><rect class="cls-16" x="323.96" y="76.49" width="9.53" height="3.18"/><rect class="cls-16" x="320.79" y="73.31" width="9.53" height="3.18"/><rect class="cls-16" x="298.54" y="86.02" width="9.53" height="3.18"/><rect class="cls-16" x="308.08" y="79.67" width="3.18" height="3.18"/><rect class="cls-16" x="317.61" y="70.13" width="6.36" height="3.18"/><rect class="cls-16" x="330.32" y="79.67" width="9.53" height="3.18"/><rect class="cls-13" x="298.54" y="82.85" width="15.89" height="3.18"/><rect class="cls-15" x="304.9" y="82.85" width="9.53" height="3.18"/><rect class="cls-15" x="311.25" y="89.2" width="9.53" height="3.18"/><rect class="cls-16" x="301.72" y="89.2" width="9.53" height="3.18"/><rect class="cls-16" x="301.72" y="82.85" width="3.18" height="3.18"/><rect class="cls-13" x="39.72" y="150.77" width="44.49" height="3.18"/><rect class="cls-13" x="42.9" y="147.59" width="34.96" height="3.18"/><polygon class="cls-14" points="55.61 141.23 52.44 141.23 52.44 144.41 55.61 144.41 58.79 144.41 58.79 141.23 55.61 141.23"/><rect class="cls-15" x="68.33" y="147.59" width="9.53" height="3.18"/><rect class="cls-15" x="74.68" y="150.77" width="9.53" height="3.18"/><rect class="cls-16" x="58.79" y="147.59" width="9.53" height="3.18"/><rect class="cls-17" x="55.61" y="144.41" width="9.53" height="3.18"/><rect class="cls-17" x="52.44" y="141.23" width="6.36" height="3.18"/><rect class="cls-16" x="65.15" y="150.77" width="9.53" height="3.18"/><rect class="cls-13" x="23.83" y="144.41" width="44.49" height="3.18"/><rect class="cls-13" x="27.01" y="141.23" width="34.96" height="3.18"/><rect class="cls-13" x="33.37" y="138.05" width="22.25" height="3.18"/><rect class="cls-13" x="11.12" y="150.77" width="25.42" height="3.18"/><polygon class="cls-14" points="39.73 134.88 36.55 134.88 36.55 138.05 39.73 138.05 42.9 138.05 42.9 134.88 39.73 134.88"/><rect class="cls-15" x="46.08" y="138.05" width="9.53" height="3.18"/><rect class="cls-15" x="27.01" y="150.77" width="9.53" height="3.18"/><rect class="cls-15" x="52.44" y="141.23" width="9.53" height="3.18"/><rect class="cls-15" x="58.79" y="144.41" width="9.53" height="3.18"/><rect class="cls-15" x="39.72" y="134.88" width="9.53" height="3.18"/><rect class="cls-16" x="42.9" y="141.23" width="9.53" height="3.18"/><rect class="cls-16" x="39.72" y="138.05" width="9.53" height="3.18"/><rect class="cls-16" x="17.48" y="150.77" width="9.53" height="3.18"/><rect class="cls-16" x="27.01" y="144.41" width="3.18" height="3.18"/><rect class="cls-16" x="36.55" y="134.88" width="6.36" height="3.18"/><rect class="cls-16" x="49.26" y="144.41" width="9.53" height="3.18"/><rect class="cls-13" x="17.48" y="147.59" width="15.89" height="3.18"/><rect class="cls-15" x="23.83" y="147.59" width="9.53" height="3.18"/><rect class="cls-15" x="30.19" y="153.94" width="9.53" height="3.18"/><rect class="cls-16" x="20.66" y="153.94" width="9.53" height="3.18"/><rect class="cls-16" x="20.66" y="147.59" width="3.18" height="3.18"/><rect class="cls-15" x="96.93" y="153.85" width="9.53" height="3.18"/><rect class="cls-15" x="103.28" y="157.03" width="9.53" height="3.18"/><rect class="cls-15" x="90.57" y="150.67" width="9.53" height="3.18"/><rect class="cls-16" x="93.75" y="157.03" width="9.53" height="3.18"/><rect class="cls-16" x="84.22" y="153.85" width="15.89" height="3.18"/><rect class="cls-15" x="270.13" y="119.4" width="9.53" height="3.18"/><rect class="cls-15" x="276.48" y="122.58" width="9.53" height="3.18"/><rect class="cls-15" x="263.77" y="116.22" width="9.53" height="3.18"/><rect class="cls-16" x="266.95" y="122.58" width="9.53" height="3.18"/><rect class="cls-16" x="257.42" y="119.4" width="15.89" height="3.18"/></g></g></g></svg>