<svg xmlns="http://www.w3.org/2000/svg" xmlns:xlink="http://www.w3.org/1999/xlink" viewBox="0 0 217.16 125.54"><defs><style>.cls-1{isolation:isolate;}.cls-10,.cls-11,.cls-12,.cls-13,.cls-14,.cls-15,.cls-16,.cls-17,.cls-18,.cls-19,.cls-2,.cls-20,.cls-21,.cls-22,.cls-23,.cls-24,.cls-25,.cls-26,.cls-27,.cls-28,.cls-29,.cls-3,.cls-30,.cls-31,.cls-32,.cls-33,.cls-34,.cls-35,.cls-36,.cls-37,.cls-38,.cls-39,.cls-4,.cls-40,.cls-41,.cls-42,.cls-43,.cls-44,.cls-45,.cls-46,.cls-47,.cls-48,.cls-49,.cls-5,.cls-50,.cls-51,.cls-52,.cls-53,.cls-54,.cls-6,.cls-7,.cls-8,.cls-9{fill-rule:evenodd;}.cls-2{fill:url(#Áåçûìÿííûé_ãðàäèåíò_300);}.cls-10,.cls-11,.cls-12,.cls-13,.cls-14,.cls-15,.cls-17,.cls-22,.cls-3,.cls-39,.cls-4,.cls-41,.cls-42,.cls-44,.cls-45,.cls-5,.cls-7,.cls-8,.cls-9{opacity:0.5;}.cls-10,.cls-11,.cls-12,.cls-13,.cls-14,.cls-15,.cls-17,.cls-22,.cls-23,.cls-27,.cls-29,.cls-3,.cls-30,.cls-34,.cls-35,.cls-36,.cls-4,.cls-42,.cls-45,.cls-47,.cls-48,.cls-5,.cls-50,.cls-52,.cls-54,.cls-6,.cls-7,.cls-8,.cls-9{mix-blend-mode:multiply;}.cls-3{fill:url(#Áåçûìÿííûé_ãðàäèåíò_149);}.cls-4{fill:url(#Áåçûìÿííûé_ãðàäèåíò_149-2);}.cls-5{fill:url(#Áåçûìÿííûé_ãðàäèåíò_149-3);}.cls-6{opacity:0.7;fill:url(#Áåçûìÿííûé_ãðàäèåíò_149-4);}.cls-7{fill:url(#Áåçûìÿííûé_ãðàäèåíò_149-5);}.cls-8{fill:url(#Áåçûìÿííûé_ãðàäèåíò_149-6);}.cls-9{fill:url(#Áåçûìÿííûé_ãðàäèåíò_149-7);}.cls-10{fill:url(#Áåçûìÿííûé_ãðàäèåíò_149-8);}.cls-11{fill:url(#Áåçûìÿííûé_ãðàäèåíò_149-9);}.cls-12{fill:url(#Áåçûìÿííûé_ãðàäèåíò_149-10);}.cls-13{fill:url(#Áåçûìÿííûé_ãðàäèåíò_149-11);}.cls-14{fill:url(#Áåçûìÿííûé_ãðàäèåíò_149-12);}.cls-15{fill:url(#Áåçûìÿííûé_ãðàäèåíò_149-13);}.cls-16{fill:#95552f;}.cls-16,.cls-20,.cls-52,.cls-54{opacity:0.2;}.cls-17{fill:url(#Áåçûìÿííûé_ãðàäèåíò_149-14);}.cls-18{fill:#c57539;}.cls-18,.cls-23{opacity:0.3;}.cls-19{fill:#290e18;}.cls-20{fill:#d9772f;}.cls-21{fill:#77342d;}.cls-22{fill:url(#Áåçûìÿííûé_ãðàäèåíò_149-15);}.cls-23{fill:url(#Áåçûìÿííûé_ãðàäèåíò_149-16);}.cls-24{fill:#fc8395;}.cls-25{opacity:0.6;fill:url(#Áåçûìÿííûé_ãðàäèåíò_479);}.cls-25,.cls-39,.cls-41,.cls-44{mix-blend-mode:screen;}.cls-26{fill:url(#Áåçûìÿííûé_ãðàäèåíò_16);}.cls-27,.cls-29,.cls-30,.cls-34,.cls-35,.cls-36,.cls-47,.cls-48,.cls-50{opacity:0.8;}.cls-27{fill:url(#Áåçûìÿííûé_ãðàäèåíò_149-17);}.cls-28{fill:url(#Áåçûìÿííûé_ãðàäèåíò_37);}.cls-29{fill:url(#Áåçûìÿííûé_ãðàäèåíò_149-18);}.cls-30{fill:url(#Áåçûìÿííûé_ãðàäèåíò_149-19);}.cls-31{fill:#fff;}.cls-32{fill:url(#Áåçûìÿííûé_ãðàäèåíò_16-2);}.cls-33{fill:url(#Áåçûìÿííûé_ãðàäèåíò_37-2);}.cls-34{fill:url(#Áåçûìÿííûé_ãðàäèåíò_149-20);}.cls-35{fill:url(#Áåçûìÿííûé_ãðàäèåíò_149-21);}.cls-36{fill:url(#Áåçûìÿííûé_ãðàäèåíò_149-22);}.cls-37{fill:url(#Áåçûìÿííûé_ãðàäèåíò_63);}.cls-38,.cls-40{fill:#abffed;}.cls-38,.cls-51{mix-blend-mode:soft-light;}.cls-39{fill:url(#Áåçûìÿííûé_ãðàäèåíò_100);}.cls-41{fill:url(#Áåçûìÿííûé_ãðàäèåíò_102);}.cls-42{fill:url(#Áåçûìÿííûé_ãðàäèåíò_149-23);}.cls-43{fill:url(#Áåçûìÿííûé_ãðàäèåíò_63-2);}.cls-44{fill:url(#Áåçûìÿííûé_ãðàäèåíò_100-2);}.cls-45{fill:url(#Áåçûìÿííûé_ãðàäèåíò_149-24);}.cls-46{fill:url(#Áåçûìÿííûé_ãðàäèåíò_44);}.cls-47{fill:url(#Áåçûìÿííûé_ãðàäèåíò_149-25);}.cls-48{fill:url(#Áåçûìÿííûé_ãðàäèåíò_149-26);}.cls-49{fill:url(#Áåçûìÿííûé_ãðàäèåíò_44-2);}.cls-50{fill:url(#Áåçûìÿííûé_ãðàäèåíò_149-27);}.cls-51{fill:#aba7b5;}.cls-52{fill:url(#Áåçûìÿííûé_ãðàäèåíò_149-28);}.cls-53{fill:#8b6f8b;}.cls-54{fill:url(#Áåçûìÿííûé_ãðàäèåíò_149-29);}</style><linearGradient id="Áåçûìÿííûé_ãðàäèåíò_300" x1="108.58" y1="117.89" x2="108.58" y2="52.85" gradientUnits="userSpaceOnUse"><stop offset="0" stop-color="#65337c"/><stop offset="0.28" stop-color="#752e32"/><stop offset="1" stop-color="#4a2232"/></linearGradient><linearGradient id="Áåçûìÿííûé_ãðàäèåíò_149" x1="4.42" y1="62.25" x2="63.99" y2="62.25" gradientUnits="userSpaceOnUse"><stop offset="0" stop-color="#c77cbd"/><stop offset="1" stop-color="#974577"/></linearGradient><linearGradient id="Áåçûìÿííûé_ãðàäèåíò_149-2" x1="10.76" y1="88.25" x2="57.84" y2="88.25" xlink:href="#Áåçûìÿííûé_ãðàäèåíò_149"/><linearGradient id="Áåçûìÿííûé_ãðàäèåíò_149-3" x1="55.54" y1="100.69" x2="132.41" y2="100.69" xlink:href="#Áåçûìÿííûé_ãðàäèåíò_149"/><linearGradient id="Áåçûìÿííûé_ãðàäèåíò_149-4" x1="119.15" y1="79.32" x2="207.17" y2="79.32" xlink:href="#Áåçûìÿííûé_ãðàäèåíò_149"/><linearGradient id="Áåçûìÿííûé_ãðàäèåíò_149-5" x1="55.54" y1="103.19" x2="81.67" y2="103.19" xlink:href="#Áåçûìÿííûé_ãðàäèåíò_149"/><linearGradient id="Áåçûìÿííûé_ãðàäèåíò_149-6" x1="19.22" y1="89.58" x2="57.84" y2="89.58" xlink:href="#Áåçûìÿííûé_ãðàäèåíò_149"/><linearGradient id="Áåçûìÿííûé_ãðàäèåíò_149-7" x1="12.3" y1="60.58" x2="63.99" y2="60.58" xlink:href="#Áåçûìÿííûé_ãðàäèåíò_149"/><linearGradient id="Áåçûìÿííûé_ãðàäèåíò_149-8" x1="93.97" y1="110.79" x2="132.41" y2="110.79" xlink:href="#Áåçûìÿííûé_ãðàäèåíò_149"/><linearGradient id="Áåçûìÿííûé_ãðàäèåíò_149-9" x1="128.82" y1="62.98" x2="160.14" y2="62.98" xlink:href="#Áåçûìÿííûé_ãðàäèåíò_149"/><linearGradient id="Áåçûìÿííûé_ãðàäèåíò_149-10" x1="147.36" y1="76.45" x2="181.22" y2="76.45" xlink:href="#Áåçûìÿííûé_ãðàäèåíò_149"/><linearGradient id="Áåçûìÿííûé_ãðàäèåíò_149-11" x1="175.01" y1="75.29" x2="187.76" y2="75.29" xlink:href="#Áåçûìÿííûé_ãðàäèåíò_149"/><linearGradient id="Áåçûìÿííûé_ãðàäèåíò_149-12" x1="179.62" y1="68.5" x2="207.17" y2="68.5" xlink:href="#Áåçûìÿííûé_ãðàäèåíò_149"/><linearGradient id="Áåçûìÿííûé_ãðàäèåíò_149-13" x1="81.67" y1="90.89" x2="114.54" y2="90.89" xlink:href="#Áåçûìÿííûé_ãðàäèåíò_149"/><linearGradient id="Áåçûìÿííûé_ãðàäèåíò_149-14" x1="63.99" y1="77.59" x2="84.17" y2="77.59" xlink:href="#Áåçûìÿííûé_ãðàäèåíò_149"/><linearGradient id="Áåçûìÿííûé_ãðàäèåíò_149-15" x1="142.81" y1="101.34" x2="158.93" y2="101.34" xlink:href="#Áåçûìÿííûé_ãðàäèåíò_149"/><linearGradient id="Áåçûìÿííûé_ãðàäèåíò_149-16" x1="52.46" y1="86.99" x2="175.01" y2="86.99" xlink:href="#Áåçûìÿííûé_ãðàäèåíò_149"/><linearGradient id="Áåçûìÿííûé_ãðàäèåíò_479" x1="108.58" y1="117.89" x2="108.58" y2="52.85" gradientUnits="userSpaceOnUse"><stop offset="0" stop-color="#3d56ff"/><stop offset="1"/></linearGradient><linearGradient id="Áåçûìÿííûé_ãðàäèåíò_16" x1="168.72" y1="99.38" x2="168.72" y2="63.7" gradientUnits="userSpaceOnUse"><stop offset="0" stop-color="#722232"/><stop offset="1" stop-color="#ac2752"/></linearGradient><linearGradient id="Áåçûìÿííûé_ãðàäèåíò_149-17" x1="156.43" y1="92.19" x2="178.6" y2="92.19" xlink:href="#Áåçûìÿííûé_ãðàäèåíò_149"/><linearGradient id="Áåçûìÿííûé_ãðàäèåíò_37" x1="177.98" y1="98.37" x2="177.98" y2="63.7" gradientUnits="userSpaceOnUse"><stop offset="0" stop-color="#9f223f"/><stop offset="1" stop-color="#ca2752"/></linearGradient><linearGradient id="Áåçûìÿííûé_ãðàäèåíò_149-18" x1="178.06" y1="95.66" x2="178.06" y2="66.08" xlink:href="#Áåçûìÿííûé_ãðàäèåíò_149"/><linearGradient id="Áåçûìÿííûé_ãðàäèåíò_149-19" x1="169.77" y1="73.48" x2="186.66" y2="73.48" xlink:href="#Áåçûìÿííûé_ãðàäèåíò_149"/><linearGradient id="Áåçûìÿííûé_ãðàäèåíò_16-2" x1="97.36" y1="125.29" x2="97.36" y2="95.28" xlink:href="#Áåçûìÿííûé_ãðàäèåíò_16"/><linearGradient id="Áåçûìÿííûé_ãðàäèåíò_37-2" x1="91.19" y1="125.54" x2="91.19" y2="100.94" xlink:href="#Áåçûìÿííûé_ãðàäèåíò_37"/><linearGradient id="Áåçûìÿííûé_ãðàäèåíò_149-20" x1="90.7" y1="123.87" x2="90.7" y2="103.44" xlink:href="#Áåçûìÿííûé_ãðàäèåíò_149"/><linearGradient id="Áåçûìÿííûé_ãðàäèåíò_149-21" x1="82.15" y1="108.55" x2="98.42" y2="108.55" xlink:href="#Áåçûìÿííûé_ãðàäèåíò_149"/><linearGradient id="Áåçûìÿííûé_ãðàäèåíò_149-22" x1="100.03" y1="109.57" x2="127.81" y2="109.57" xlink:href="#Áåçûìÿííûé_ãðàäèåíò_149"/><radialGradient id="Áåçûìÿííûé_ãðàäèåíò_63" cx="24.29" cy="43.31" r="30.11" gradientUnits="userSpaceOnUse"><stop offset="0" stop-color="#55dbd6"/><stop offset="1" stop-color="#0072cd"/></radialGradient><radialGradient id="Áåçûìÿííûé_ãðàäèåíò_100" cx="23.62" cy="14.84" r="14.33" gradientUnits="userSpaceOnUse"><stop offset="0"/><stop offset="1" stop-color="#fff"/></radialGradient><radialGradient id="Áåçûìÿííûé_ãðàäèåíò_102" cx="23.07" cy="-2658.56" r="9.65" gradientTransform="translate(0 3942.3) scale(1 1.47)" gradientUnits="userSpaceOnUse"><stop offset="0.58"/><stop offset="1" stop-color="#fff"/></radialGradient><linearGradient id="Áåçûìÿííûé_ãðàäèåíò_149-23" x1="36.03" y1="35.5" x2="43.72" y2="35.5" xlink:href="#Áåçûìÿííûé_ãðàäèåíò_149"/><radialGradient id="Áåçûìÿííûé_ãðàäèåíò_63-2" cx="48.78" cy="49.24" r="27.64" xlink:href="#Áåçûìÿííûé_ãðàäèåíò_63"/><radialGradient id="Áåçûìÿííûé_ãðàäèåíò_100-2" cx="51.61" cy="40.38" r="11.42" xlink:href="#Áåçûìÿííûé_ãðàäèåíò_100"/><linearGradient id="Áåçûìÿííûé_ãðàäèåíò_149-24" x1="53.32" y1="49.52" x2="68.32" y2="49.52" xlink:href="#Áåçûìÿííûé_ãðàäèåíò_149"/><linearGradient id="Áåçûìÿííûé_ãðàäèåíò_44" x1="165.57" y1="52.85" x2="165.57" y2="17.83" gradientUnits="userSpaceOnUse"><stop offset="0" stop-color="#633d4c"/><stop offset="1" stop-color="#685c5b"/></linearGradient><linearGradient id="Áåçûìÿííûé_ãðàäèåíò_149-25" x1="193.22" y1="52.84" x2="193.22" y2="18.2" xlink:href="#Áåçûìÿííûé_ãðàäèåíò_149"/><linearGradient id="Áåçûìÿííûé_ãðàäèåíò_149-26" x1="149.37" y1="52.84" x2="149.37" y2="45.35" xlink:href="#Áåçûìÿííûé_ãðàäèåíò_149"/><linearGradient id="Áåçûìÿííûé_ãðàäèåíò_44-2" x1="198.9" y1="52.85" x2="198.9" y2="39.34" xlink:href="#Áåçûìÿííûé_ãðàäèåíò_44"/><linearGradient id="Áåçûìÿííûé_ãðàäèåíò_149-27" x1="208.43" y1="52.85" x2="208.43" y2="40.06" xlink:href="#Áåçûìÿííûé_ãðàäèåíò_149"/><linearGradient id="Áåçûìÿííûé_ãðàäèåíò_149-28" x1="179.78" y1="33.97" x2="179.78" y2="20.63" xlink:href="#Áåçûìÿííûé_ãðàäèåíò_149"/><linearGradient id="Áåçûìÿííûé_ãðàäèåíò_149-29" x1="180.32" y1="52.85" x2="180.32" y2="36.24" xlink:href="#Áåçûìÿííûé_ãðàäèåíò_149"/></defs><title>isla</title><g class="cls-1"><g id="Layer_2" data-name="Layer 2"><g id="game"><polygon class="cls-2" points="217.16 52.85 207.17 66.19 193.33 68.69 187.76 74.65 184.3 75.93 181.22 79.2 176.03 82.09 171.04 101.75 164.5 105.01 162.36 105.77 162.34 105.78 162.33 105.78 132.41 116.35 100.51 117.89 93.97 116.16 80.71 103.7 71.68 108.09 61.5 106.17 55.54 106.17 53.04 98.29 46.7 96.26 10.76 78.2 9.8 71.64 4.42 67.15 0 52.85 217.16 52.85"/><polygon class="cls-3" points="4.42 67.15 12.3 68.31 42.28 58.53 48.41 52.85 63.99 52.85 44.01 63.7 9.8 71.64 4.42 67.15"/><polygon class="cls-4" points="10.76 78.2 19.22 80.87 57.84 80.87 57.84 80.87 52.46 90.22 53.04 98.29 46.7 96.25 10.76 78.2"/><polygon class="cls-5" points="55.54 106.17 63.99 102.32 81.67 98.29 114.54 83.49 97.24 96.25 105.89 103.7 132.41 116.35 100.51 117.89 93.97 116.16 80.71 103.7 71.68 108.09 61.5 106.17 55.54 106.17"/><polygon class="cls-6" points="207.17 66.19 193.33 68.69 187.76 74.65 184.3 75.93 181.22 79.2 176.03 82.09 171.04 101.75 162.36 105.77 162.34 105.78 158.93 105.78 152.01 89.99 145.28 62.24 130.68 73.11 126.26 78.2 119.15 81.88 124.98 77.21 128.82 72.28 136.44 52.85 160.14 52.85 171.04 66.33 179.62 68.5 207.17 66.19"/><polygon class="cls-7" points="55.54 106.17 63.99 102.32 81.67 98.29 80.71 103.7 71.68 108.09 61.5 106.17 55.54 106.17"/><polygon class="cls-8" points="19.22 82.34 19.22 80.87 46.63 80.87 57.84 80.87 57.84 80.87 52.46 90.22 53.04 98.29 46.7 96.25 19.22 82.34"/><polygon class="cls-9" points="12.3 68.31 32.31 66.41 44.01 63.7 63.99 52.85 48.41 52.85 42.28 58.53 12.3 68.31"/><polygon class="cls-10" points="105.89 103.7 93.97 116.16 100.51 117.89 132.41 116.35 105.89 103.7"/><polygon class="cls-11" points="136.44 52.85 160.14 52.85 149.38 58.76 145.28 62.24 130.68 73.11 128.82 72.28 136.44 52.85"/><polygon class="cls-12" points="176.03 82.09 158.54 80.87 147.36 70.81 165.66 77.59 181.22 79.2 176.03 82.09"/><polygon class="cls-13" points="184.3 75.93 175.01 74.91 187.76 74.65 184.3 75.93"/><polygon class="cls-14" points="193.33 68.69 185 70.81 179.62 68.5 207.17 66.19 193.33 68.69"/><polygon class="cls-15" points="81.67 98.29 97.24 96.25 114.54 83.49 81.67 98.29"/><polygon class="cls-16" points="55.54 106.17 53.04 98.29 52.46 90.22 57.84 80.87 63.99 52.85 84.17 52.85 84.17 52.85 66.69 79.51 65.53 89.58 63.99 102.32 55.54 106.17"/><polygon class="cls-17" points="84.17 52.85 81.67 85.37 81.67 98.29 63.99 102.32 66.69 79.51 84.17 52.85"/><polygon class="cls-18" points="9.8 71.64 44.01 63.7 34.3 78.5 19.22 80.87 10.76 78.2 9.8 71.64"/><polygon class="cls-19" points="82.93 105.78 84.17 98.29 88.3 97.42 97.24 96.25 84.17 97.16 81.67 94.51 81.75 84.35 80.46 98.29 79.42 98.8 80.71 103.7 82.93 105.78"/><polygon class="cls-19" points="156.82 52.85 149.77 57.1 142.08 63.7 133.78 70.81 150.92 57.87 161.22 54.18 171.81 52.85 156.82 52.85"/><polygon class="cls-20" points="10.76 78.2 38.53 72.28 58.81 76.45 70.29 74.02 82.4 75.93 130.38 68.31 134.93 69.82 133.78 70.81 130.1 69.17 82.27 77.59 69.86 74.65 58.56 77.59 37.19 73.98 14.9 79.51 10.76 78.2"/><polygon class="cls-21" points="69.03 75.93 66.01 85.37 65.05 80.65 69.03 75.93"/><polygon class="cls-22" points="152.01 89.99 142.81 112.68 158.93 105.78 152.01 89.99"/><polygon class="cls-23" points="52.46 90.22 65.53 89.58 81.7 90.89 113.19 84.1 149.47 79.51 175.01 86.12 173.8 90.89 151.18 86.56 106.29 89.58 102.94 88.55 80.97 92.72 65.53 91.31 52.77 94.46 52.46 90.22"/><polygon class="cls-20" points="166.82 103.7 156.12 99.38 147.41 101.34 110.25 105.78 98.11 117.25 100.51 117.89 112.1 106.81 147.01 102.32 156.7 100.69 164.5 105.01 166.82 103.7"/><path class="cls-24" d="M0,52.85H217.16s-48.9,4.57-112.87,4.57S0,52.85,0,52.85Z"/><polygon class="cls-18" points="52.46 90.22 65.05 80.65 81.42 57.05 63.07 57.05 58.56 77.59 52.46 90.22"/><polygon class="cls-25" points="217.16 52.85 207.17 66.19 193.33 68.69 187.76 74.65 184.3 75.93 181.22 79.2 176.03 82.09 171.04 101.75 164.5 105.01 162.36 105.77 162.34 105.78 162.33 105.78 132.41 116.35 100.51 117.89 93.97 116.16 80.71 103.7 71.68 108.09 61.5 106.17 55.54 106.17 53.04 98.29 46.7 96.26 10.76 78.2 9.8 71.64 4.42 67.15 0 52.85 217.16 52.85"/><path class="cls-26" d="M160.14,73.91s-1.7,8.69-1.21,11.46,7.89,14,7.89,14l11.78-1.09-4-34.59S163.34,70.6,160.14,73.91Z"/><path class="cls-27" d="M159.41,78.21s-4,12.68-2.71,22.48c.18,1.38,2.23,5.09,2.23,5.09l2.31.39,9.8-4.42.72-2.83,6.84-.63s-8.24-1.94-11.78-12.92h-7.89Z"/><path class="cls-28" d="M175.65,63.7c-1.74,0-5.79,3.84-6.93,7.11a43.69,43.69,0,0,0-1.9,14.56c.37,4.46,6.29,12.61,7.39,12.92s9-.17,10.86-1.83C187.85,94,189.87,77,189,71.58S176.9,63.7,175.65,63.7Z"/><path class="cls-29" d="M186.66,76.45a60.34,60.34,0,0,1-1.88,14.43c-1.25,3.66-6.63,5.68-8.94,4.39s-6.92-10.72-6.34-15.76c.07-.6.15-1.22.27-1.85.79-4.72,2.69-10.17,5.94-11.47,1.75-.69,8,1.93,10,4.62C186.41,71.71,186.67,73.86,186.66,76.45Z"/><path class="cls-30" d="M186.66,76.45s-10-1.88-14.75,4.42l-2.14-3.21c.79-4.72,2.69-10.17,5.94-11.47,1.75-.69,8,1.93,10,4.62C186.41,71.71,186.67,73.86,186.66,76.45Z"/><path class="cls-31" d="M170.41,74.65s6.67,5.22,3,17.73c0,0-3.31-6.14-4-9.72S170.41,74.65,170.41,74.65Z"/><path class="cls-32" d="M98.57,95.28l-14.9,6.06a30.47,30.47,0,0,0-3.44,8.19c-.77,3.84,6.42,13.26,9.17,15s11,.19,12.8-1.25,12.34-12.48,12.34-12.48-2.25-9.28-4-11.41C107.33,95.28,98.57,95.28,98.57,95.28Z"/><path class="cls-33" d="M83.67,101.34c1.26-1.52,14,1.66,16.36,3.58s2.52,18.75,1.82,18.93-7.49,2.61-11.43,1.3-10.24-11.23-10.24-14.36C80.18,107.26,82.49,102.75,83.67,101.34Z"/><path class="cls-34" d="M98.73,121.25c-.91,2.21-5.52,3.22-7.54,2.26-1.54-.73-5.91-6.39-8-9.86a7.19,7.19,0,0,1-1.08-2.39c-.1-1.83,1.24-7.09,2.35-7.56,2.21-.93,10.47.78,12.73,2.47a4.24,4.24,0,0,1,1.18,2.21C99.51,112.24,99.45,119.52,98.73,121.25Z"/><path class="cls-35" d="M98.42,108.38l-1.06,2.41c-4.62-2.81-14.12,2.86-14.12,2.86a7.19,7.19,0,0,1-1.08-2.39c-.1-1.83,1.24-7.09,2.35-7.56,2.21-.93,10.47.78,12.73,2.47A4.24,4.24,0,0,1,98.42,108.38Z"/><path class="cls-31" d="M94,104.74s1.08,7.28,5.25,9.68c0,0-.45-6.18-1.48-7.67S94,104.74,94,104.74Z"/><path class="cls-36" d="M100,104.92l11.32-4.23s-1.18-3.57-7.59-4.81a19.17,19.17,0,0,1,10.78,4.52c4.9,4.28,13.27,16.17,13.27,16.17l-19.76,1-5.85,5.74S103.1,112.8,100,104.92Z"/><path class="cls-37" d="M22.43,52.85S14.05,40.51,13.5,39.52,9.8,9.3,9.8,9.3,15,.79,16.12,0s20.54,18.63,21.31,19.8,6.29,33,6.29,33Z"/><path class="cls-38" d="M9.8,9.3s8.11,15.94,9.93,17.12,8.55,3.72,11.08,3.17S35.53,27.9,36,26.22s1.4-6.4,1.4-6.4S17.63-.59,16.12,0,9.8,9.3,9.8,9.3Z"/><path class="cls-39" d="M9.8,9.3s8.11,15.94,9.93,17.12,8.55,3.72,11.08,3.17S35.53,27.9,36,26.22s1.4-6.4,1.4-6.4S17.63-.59,16.12,0,9.8,9.3,9.8,9.3Z"/><path class="cls-38" d="M37.32,38.2s4.28,7.37,5.72,8,8.51,1.6,10.28,1.71,12.57-1.71,12.57-1.71S49.4,33.56,46.53,32.88C44.93,32.49,37.32,38.2,37.32,38.2Z"/><path class="cls-40" d="M19.73,26.42,13.5,39.52s-3.2-21-3.7-30.22Z"/><polygon class="cls-41" points="34.21 52.85 29.71 29.67 19.73 26.43 13.5 39.52 22.43 52.85 34.21 52.85"/><path class="cls-42" d="M36,26.22l7.69,25L37.43,19.82S36.58,25.2,36,26.22Z"/><polygon class="cls-40" points="25.02 28.77 32.4 29.15 30.17 32.04 25.02 28.77"/><polygon class="cls-40" points="14.02 16.57 34.21 18.78 35.12 17.46 37.43 19.82 34.21 19.21 15.1 17.18 14.55 17.5 14.02 16.57"/><path class="cls-43" d="M68.32,52.85s-1.88-5.29-2.43-6.66S47.58,33,46.53,32.88s-8.33,4.43-9.21,5.32-3.11,14.65-3.11,14.65Z"/><path class="cls-44" d="M37.32,38.2s4.28,7.37,5.72,8,8.51,1.6,10.28,1.71,12.57-1.71,12.57-1.71S49.4,33.56,46.53,32.88C44.93,32.49,37.32,38.2,37.32,38.2Z"/><path class="cls-40" d="M43,46.19,41.4,52.85H34.21L37.32,38.2S41.79,45.16,43,46.19Z"/><path class="cls-45" d="M53.32,47.9l4.46,5H68.32l-2.43-6.66S56.54,47.68,53.32,47.9Z"/><polygon class="cls-40" points="50.65 47.61 56.13 47.61 54.05 48.72 50.65 47.61"/><path class="cls-46" d="M130.49,52.85s7.68-5.15,10.66-6.66,15.28-.67,15.28-.67,17.82-23.26,21.79-25.7,20.49-2.15,21.84-1.62,0,34.65,0,34.65Z"/><path class="cls-47" d="M200.06,18.2S190.35,31,189.87,32.08s-4,20.76-4,20.76H198.9S201.78,31,200.06,18.2Z"/><polygon class="cls-48" points="152.79 45.35 150.28 48.72 142.31 51.69 142.31 52.84 151.53 52.84 156.43 45.52 152.79 45.35"/><path class="cls-49" d="M213.25,52.85S208.7,41,207.61,40.06s-9.28-1-11.14,0-11.92,12.79-11.92,12.79Z"/><path class="cls-50" d="M207.61,40.06a8.4,8.4,0,0,1,.71,2.74c-.1.86-4.71,5.76-4.71,5.76v4.29h9.64S208.83,41.74,207.61,40.06Z"/><path class="cls-51" d="M189.87,32.08a22.46,22.46,0,0,1-10.25,4.65c-3.59.45-12.45-.9-12.87-2.32s8.65-12.73,11.47-14.59,16.71-2.54,21.84-1.62Z"/><path class="cls-51" d="M142.31,45.8c-2.42.41-7.59,4.51-7.66,5s6.88,1.15,7.66.86,7.32-2.09,8-3l2.51-3.37A60.92,60.92,0,0,0,142.31,45.8Z"/><path class="cls-51" d="M189.21,47.52s10.6,2.71,13.39.9,5.74-5.19,5.68-6.24a2.35,2.35,0,0,0-1.11-2.12c-.69-.4-7.74-.91-10.33,0S189.21,47.52,189.21,47.52Z"/><path class="cls-52" d="M166.74,32.88s4.62-7.94,11.79-9.93,13.52-2.56,14.16-2.24-1.15,9.16-5.06,11-13.07,1.92-14.16.13,3-6,5.25-7.18,7.95-.89,8.65-.19-.38,4.23-1.54,4.74-6.79.45-6.91-.77a3.4,3.4,0,0,1,.86-2.3l1.95-.07s-1.21.71-1.34,1.67,3.79,1.59,5.09,1,1.48-3.55.35-3.94a14.07,14.07,0,0,0-7.17.55c-2.11.93-4.45,5.51-4.07,6.27s9.35,1.67,13.13-1,3.17-8.36,2.34-8.74-9.06-.1-14.51,2.94S166.8,34,166.8,34Z"/><path class="cls-53" d="M181.91,36.24l6.92.57,2.87-7.51S185.78,34.44,181.91,36.24Z"/><path class="cls-53" d="M198.75,49l4.86,1.5,2.24-4.44A15.47,15.47,0,0,1,198.75,49Z"/><polygon class="cls-54" points="181.91 36.24 171.81 52.85 185.83 52.84 186.81 50.53 188.83 36.81 181.91 36.24"/></g></g></g></svg>