<svg xmlns="http://www.w3.org/2000/svg" viewBox="0 0 119.17 92.88"><defs><style>.cls-1{fill:#c0c0ff;}.cls-2{fill:#f297ff;}.cls-3{fill:#fff;}.cls-4{fill:#e1e1ff;}.cls-5{fill:#f7caff;}.cls-6{fill:#ff9b25;}.cls-7{fill:#ff8806;}.cls-8{fill:#ffd112;}.cls-9{fill:#f47400;}.cls-10{fill:#f97600;}</style></defs><title>spaceShip01</title><g id="Layer_2" data-name="Layer 2"><g id="Layer_1-2" data-name="Layer 1"><rect class="cls-1" x="28.6" y="83.44" width="44.49" height="3.18"/><rect class="cls-1" x="31.78" y="80.26" width="34.96" height="3.18"/><polygon class="cls-2" points="44.49 73.9 41.31 73.9 41.31 77.08 44.49 77.08 47.67 77.08 47.67 73.9 44.49 73.9"/><rect class="cls-3" x="57.2" y="80.26" width="9.53" height="3.18"/><rect class="cls-3" x="63.56" y="83.44" width="9.53" height="3.18"/><rect class="cls-4" x="47.67" y="80.26" width="9.53" height="3.18"/><rect class="cls-5" x="44.49" y="77.08" width="9.53" height="3.18"/><rect class="cls-5" x="41.31" y="73.9" width="6.36" height="3.18"/><rect class="cls-4" x="54.03" y="83.44" width="9.53" height="3.18"/><rect class="cls-1" x="12.71" y="77.08" width="44.49" height="3.18"/><rect class="cls-1" x="15.89" y="73.9" width="34.96" height="3.18"/><rect class="cls-1" x="22.25" y="70.72" width="22.25" height="3.18"/><rect class="cls-1" y="83.44" width="25.42" height="3.18"/><polygon class="cls-2" points="28.6 67.55 25.42 67.55 25.42 70.72 28.6 70.72 31.78 70.72 31.78 67.55 28.6 67.55"/><rect class="cls-3" x="34.96" y="70.72" width="9.53" height="3.18"/><rect class="cls-3" x="15.89" y="83.44" width="9.53" height="3.18"/><rect class="cls-3" x="41.31" y="73.9" width="9.53" height="3.18"/><rect class="cls-3" x="47.67" y="77.08" width="9.53" height="3.18"/><rect class="cls-3" x="28.6" y="67.55" width="9.53" height="3.18"/><rect class="cls-4" x="31.78" y="73.9" width="9.53" height="3.18"/><rect class="cls-4" x="28.6" y="70.72" width="9.53" height="3.18"/><rect class="cls-4" x="6.36" y="83.44" width="9.53" height="3.18"/><rect class="cls-4" x="15.89" y="77.08" width="3.18" height="3.18"/><rect class="cls-4" x="25.42" y="67.55" width="6.36" height="3.18"/><rect class="cls-4" x="38.14" y="77.08" width="9.53" height="3.18"/><rect class="cls-1" x="6.36" y="80.26" width="15.89" height="3.18"/><rect class="cls-3" x="12.71" y="80.26" width="9.53" height="3.18"/><rect class="cls-3" x="19.07" y="86.61" width="9.53" height="3.18"/><rect class="cls-4" x="9.53" y="86.61" width="9.53" height="3.18"/><rect class="cls-4" x="9.53" y="80.26" width="3.18" height="3.18"/><rect class="cls-3" x="85.81" y="86.52" width="9.53" height="3.18"/><rect class="cls-3" x="92.16" y="89.7" width="9.53" height="3.18"/><rect class="cls-3" x="79.45" y="83.34" width="9.53" height="3.18"/><rect class="cls-4" x="82.63" y="89.7" width="9.53" height="3.18"/><rect class="cls-4" x="73.09" y="86.52" width="15.89" height="3.18"/><rect class="cls-1" x="74.68" y="35.23" width="44.49" height="3.18"/><rect class="cls-1" x="77.86" y="32.06" width="34.96" height="3.18"/><rect class="cls-1" x="84.22" y="28.88" width="22.25" height="3.18"/><polygon class="cls-2" points="90.57 25.7 87.39 25.7 87.39 28.88 90.57 28.88 93.75 28.88 93.75 25.7 90.57 25.7"/><rect class="cls-3" x="96.93" y="29.01" width="9.53" height="3.18"/><rect class="cls-3" x="103.28" y="32.18" width="9.53" height="3.18"/><rect class="cls-3" x="109.64" y="35.23" width="9.53" height="3.18"/><rect class="cls-3" x="90.57" y="25.83" width="9.53" height="3.18"/><rect class="cls-4" x="93.75" y="32.18" width="9.53" height="3.18"/><rect class="cls-4" x="90.57" y="29.01" width="9.53" height="3.18"/><rect class="cls-4" x="87.39" y="25.7" width="6.36" height="3.18"/><rect class="cls-4" x="100.11" y="35.23" width="9.53" height="3.18"/><rect class="cls-6" x="68.78" y="13.36" width="3.48" height="20.9"/><rect class="cls-6" x="61.82" y="23.81" width="3.48" height="34.83"/><rect class="cls-7" x="58.34" y="30.77" width="3.48" height="20.9"/><rect class="cls-7" x="79.23" y="30.77" width="3.48" height="20.9"/><rect class="cls-6" x="75.75" y="23.81" width="3.48" height="34.83"/><rect class="cls-8" x="68.78" y="13.36" width="3.48" height="3.48"/><rect class="cls-6" x="61.82" y="23.81" width="3.48" height="3.48"/><rect class="cls-6" x="75.75" y="23.81" width="3.48" height="3.48"/><rect class="cls-6" x="65.3" y="20.32" width="10.45" height="10.45"/><rect class="cls-9" x="65.3" y="58.63" width="10.45" height="3.24"/><rect class="cls-7" x="65.3" y="27.32" width="10.45" height="6.97"/><rect class="cls-6" x="65.3" y="34.25" width="10.45" height="24.14"/><rect class="cls-3" x="65.3" y="27.29" width="10.45" height="3.48"/><rect class="cls-3" x="58.34" y="41.22" width="10.45" height="3.48" transform="translate(106.52 -20.6) rotate(90)"/><rect class="cls-8" x="72.27" y="20.32" width="3.48" height="3.48"/><rect class="cls-8" x="61.82" y="34.25" width="3.48" height="3.48"/><rect class="cls-3" x="72.27" y="41.22" width="10.45" height="3.48" transform="translate(120.45 -34.53) rotate(90)"/><rect class="cls-8" x="75.75" y="34.25" width="3.48" height="3.48"/><rect class="cls-8" x="65.3" y="20.32" width="3.48" height="3.48"/><rect class="cls-7" x="54.85" y="34.25" width="3.48" height="20.9"/><rect class="cls-7" x="51.37" y="37.74" width="3.48" height="20.9"/><rect class="cls-7" x="47.89" y="41.22" width="3.48" height="20.9"/><rect class="cls-7" x="86.2" y="37.74" width="3.48" height="20.9"/><rect class="cls-7" x="82.71" y="34.25" width="3.48" height="20.9"/><rect class="cls-8" x="47.89" y="58.63" width="3.48" height="3.48"/><rect class="cls-7" x="89.68" y="41.22" width="3.48" height="20.9"/><rect class="cls-8" x="89.68" y="58.63" width="3.48" height="3.48"/><rect class="cls-8" x="68.78" y="67.1" width="3.48" height="6.97" transform="translate(141.05 141.17) rotate(180)"/><rect class="cls-8" x="65.3" y="63.62" width="3.48" height="6.97" transform="translate(134.08 134.2) rotate(180)"/><rect class="cls-8" x="72.27" y="63.62" width="3.48" height="6.97" transform="translate(148.01 134.2) rotate(180)"/><rect class="cls-6" x="68.78" y="63.62" width="3.48" height="6.97" transform="translate(141.05 134.2) rotate(180)"/><rect class="cls-8" x="51.37" y="37.74" width="3.48" height="3.48"/><rect class="cls-3" x="82.71" y="44.7" width="10.45" height="3.48" transform="translate(134.38 -41.49) rotate(90)"/><rect class="cls-8" x="86.2" y="37.74" width="3.48" height="3.48"/><rect class="cls-10" x="51.37" y="55.16" width="3.48" height="3.48"/><rect class="cls-10" x="86.2" y="55.16" width="3.48" height="3.48"/><rect class="cls-10" x="54.85" y="51.67" width="3.48" height="3.48"/><rect class="cls-10" x="82.71" y="51.67" width="3.48" height="3.48"/><rect class="cls-10" x="58.34" y="48.19" width="3.48" height="3.48"/><rect class="cls-10" x="79.23" y="48.19" width="3.48" height="3.48"/><rect class="cls-10" x="54.85" y="34.25" width="3.48" height="3.48"/><rect class="cls-10" x="82.71" y="34.25" width="3.48" height="3.48"/><rect class="cls-10" x="58.34" y="30.77" width="3.48" height="3.48"/><rect class="cls-10" x="79.23" y="30.77" width="3.48" height="3.48"/><rect class="cls-10" x="47.89" y="41.22" width="3.48" height="3.48"/><rect class="cls-3" x="47.89" y="44.7" width="10.45" height="3.48" transform="translate(99.56 -6.67) rotate(90)"/><rect class="cls-7" x="61.82" y="51.67" width="17.41" height="6.97"/><rect class="cls-6" x="65.3" y="48.19" width="10.45" height="6.97"/><rect class="cls-8" x="68.78" y="6.68" width="3.48" height="3.48"/><rect class="cls-8" x="68.78" width="3.48" height="3.48"/></g></g></svg>